{"glyphs":{"0":{"ha":964,"x_min":56,"x_max":908,"o":"m 482 -19 l 482 -19 q 253 44 349 -19 q 106 225 157 107 q 56 510 56 343 l 56 510 q 106 794 56 676 q 253 976 157 913 q 482 1039 349 1039 l 482 1039 q 712 976 617 1039 q 858 794 807 913 q 908 510 908 676 l 908 510 q 858 225 908 343 q 712 44 807 107 q 482 -19 617 -19 z m 482 283 l 482 283 q 541 303 515 283 q 582 374 567 324 q 597 510 597 424 l 597 510 q 582 647 597 597 q 541 716 567 696 q 482 736 515 736 l 482 736 q 424 716 450 736 q 382 647 397 696 q 367 510 367 597 l 367 510 q 382 374 367 424 q 424 303 397 324 q 482 283 450 283 z "},"1":{"ha":667,"x_min":4,"x_max":568,"o":"m 543 0 l 276 0 q 251 25 251 0 l 251 25 l 251 657 l 88 611 q 56 626 67 604 l 56 626 l 14 713 q 21 746 4 731 l 21 746 l 321 1008 q 353 1019 333 1019 l 353 1019 l 543 1019 q 568 994 568 1019 l 568 994 l 568 25 q 543 0 568 0 l 543 0 z "},"2":{"ha":878,"x_min":33,"x_max":828,"o":"m 803 0 l 90 0 q 65 25 65 0 l 65 25 l 65 104 q 78 135 65 122 l 78 135 l 344 431 q 456 574 424 517 q 489 678 489 631 l 489 678 q 469 729 489 710 q 415 749 449 749 l 415 749 q 311 657 346 749 l 311 657 q 279 640 303 633 l 279 640 l 58 700 q 40 731 33 707 l 40 731 q 184 956 78 874 q 438 1039 290 1039 l 438 1039 q 629 998 547 1039 q 758 884 711 957 q 804 714 804 811 l 804 714 q 780 575 804 640 q 700 443 756 510 q 549 297 644 376 l 549 297 l 803 297 q 828 272 828 297 l 828 272 l 828 25 q 803 0 828 0 l 803 0 z "},"3":{"ha":897,"x_min":38,"x_max":842,"o":"m 435 -19 l 435 -19 q 259 15 339 -19 q 123 114 179 49 q 43 271 67 179 l 43 271 q 61 300 38 293 l 61 300 l 278 356 q 310 338 301 363 l 310 338 q 358 278 329 294 q 428 263 388 263 l 428 263 q 498 282 475 263 q 521 333 521 301 l 521 333 q 495 387 521 368 q 424 406 469 406 l 424 406 l 372 406 q 347 431 347 406 l 347 431 l 347 607 q 372 632 347 632 l 372 632 l 428 632 q 484 650 463 632 q 506 697 506 668 l 506 697 q 484 749 506 729 q 422 768 463 768 l 422 768 q 367 751 392 768 q 325 690 342 735 l 325 690 q 293 672 314 667 l 293 672 l 68 722 q 49 753 42 726 l 49 753 q 194 966 88 893 q 443 1039 300 1039 l 443 1039 q 638 1002 554 1039 q 769 900 722 965 q 817 751 817 835 l 817 751 q 778 628 817 686 q 661 532 739 571 l 661 532 q 795 440 749 501 q 842 290 842 378 l 842 290 q 792 127 842 197 q 650 19 742 57 q 435 -19 558 -19 z "},"4":{"ha":939,"x_min":17,"x_max":917,"o":"m 760 0 l 521 0 q 496 25 496 0 l 496 25 l 496 156 l 42 156 q 17 181 17 156 l 17 181 l 17 261 q 26 292 17 276 l 26 292 l 540 1004 q 571 1019 550 1019 l 571 1019 l 760 1019 q 785 994 785 1019 l 785 994 l 785 390 l 892 390 q 917 365 917 390 l 917 365 l 917 181 q 892 156 917 156 l 892 156 l 785 156 l 785 25 q 760 0 785 0 l 760 0 z m 496 622 l 329 390 l 496 390 l 496 622 z "},"5":{"ha":906,"x_min":44,"x_max":856,"o":"m 454 -19 l 454 -19 q 206 51 310 -19 q 53 253 101 122 l 53 253 q 69 285 44 278 l 69 285 l 283 340 q 317 326 303 346 l 317 326 q 436 263 356 263 l 436 263 q 508 283 482 263 q 535 343 535 304 l 535 343 q 506 405 535 382 q 429 428 478 428 l 429 428 q 365 417 396 428 q 281 379 335 407 l 281 379 q 246 379 264 369 l 246 379 l 113 450 q 96 481 94 460 l 96 481 l 140 996 q 165 1019 142 1019 l 165 1019 l 769 1019 q 794 994 794 1019 l 794 994 l 794 758 q 769 733 794 733 l 769 733 l 376 733 l 363 610 q 440 649 400 633 q 538 664 481 664 l 538 664 q 702 624 631 664 q 815 510 774 583 q 856 342 856 438 l 856 342 q 804 154 856 236 q 663 26 753 72 q 454 -19 572 -19 z "},"6":{"ha":897,"x_min":42,"x_max":861,"o":"m 453 -19 l 453 -19 q 238 31 331 -19 q 94 166 146 81 q 42 357 42 251 l 42 357 q 61 485 42 419 q 123 631 81 550 q 238 825 165 713 l 238 825 l 351 1003 q 382 1019 363 1019 l 382 1019 l 672 1019 q 692 1010 688 1019 q 688 989 696 1001 l 688 989 l 489 694 q 529 697 508 697 l 529 697 q 701 652 626 697 q 818 528 775 607 q 861 347 861 450 l 861 347 q 810 156 861 239 q 667 27 758 74 q 453 -19 575 -19 z m 451 251 l 451 251 q 531 284 500 251 q 561 368 561 317 l 561 368 q 531 453 561 421 q 451 485 500 485 l 451 485 q 373 453 404 485 q 342 368 342 421 l 342 368 q 373 284 342 317 q 451 251 404 251 z "},"7":{"ha":810,"x_min":14,"x_max":790,"o":"m 438 0 l 153 0 q 134 8 139 0 q 133 29 129 17 l 133 29 l 399 719 l 39 719 q 14 744 14 719 l 14 744 l 14 994 q 39 1019 14 1019 l 39 1019 l 765 1019 q 790 994 790 1019 l 790 994 l 790 913 q 785 882 790 894 l 785 882 l 465 21 q 438 0 460 0 l 438 0 z "},"8":{"ha":908,"x_min":49,"x_max":860,"o":"m 454 -19 l 454 -19 q 240 19 332 -19 q 99 125 149 57 q 49 286 49 193 l 49 286 q 91 431 49 365 q 210 535 133 497 l 210 535 q 108 619 144 569 q 71 744 71 669 l 71 744 q 118 896 71 829 q 251 1001 165 963 q 454 1039 338 1039 l 454 1039 q 657 1001 571 1039 q 790 896 743 963 q 838 744 838 829 l 838 744 q 801 619 838 669 q 699 535 764 569 l 699 535 q 817 431 775 497 q 860 286 860 365 l 860 286 q 810 126 860 194 q 669 19 760 57 q 454 -19 578 -19 z m 454 628 l 454 628 q 526 651 499 628 q 553 713 553 675 l 553 713 q 526 774 553 750 q 454 797 499 797 l 454 797 q 382 774 410 797 q 354 713 354 750 l 354 713 q 382 651 354 675 q 454 628 410 628 z m 454 226 l 454 226 q 541 254 508 226 q 574 326 574 282 l 574 326 q 541 399 574 371 q 454 426 508 426 l 454 426 q 367 399 400 426 q 335 326 335 371 l 335 326 q 367 254 335 282 q 454 226 400 226 z "},"9":{"ha":897,"x_min":36,"x_max":856,"o":"m 501 0 l 213 0 q 192 9 197 0 q 196 31 186 18 l 196 31 l 401 325 q 358 322 381 322 l 358 322 q 194 367 267 322 q 78 492 121 413 q 36 672 36 571 l 36 672 q 88 863 36 781 q 231 992 139 946 q 444 1039 322 1039 l 444 1039 q 659 989 567 1039 q 803 854 751 939 q 856 663 856 769 l 856 663 q 836 534 856 600 q 772 387 817 468 q 653 194 728 306 l 653 194 l 532 17 q 501 0 522 0 l 501 0 z m 446 535 l 446 535 q 523 567 490 535 q 556 651 556 600 l 556 651 q 525 736 556 704 q 446 768 494 768 l 446 768 q 367 736 399 768 q 336 651 336 704 l 336 651 q 367 567 336 600 q 446 535 399 535 z "},"\u0000":{"ha":0,"x_min":null,"x_max":null,"o":""},"\r":{"ha":278,"x_min":null,"x_max":null,"o":""}," ":{"ha":278,"x_min":null,"x_max":null,"o":""},".":{"ha":439,"x_min":49,"x_max":390,"o":"m 219 -14 l 219 -14 q 98 31 147 -14 q 49 149 49 76 l 49 149 q 98 265 49 221 q 219 310 147 310 l 219 310 q 341 265 292 310 q 390 149 390 221 l 390 149 q 341 31 390 76 q 219 -14 292 -14 z "},":":{"ha":439,"x_min":49,"x_max":390,"o":"m 219 432 l 219 432 q 98 477 147 432 q 49 594 49 522 l 49 594 q 98 711 49 667 q 219 756 147 756 l 219 756 q 341 711 292 756 q 390 594 390 667 l 390 594 q 341 477 390 522 q 219 432 292 432 z m 219 -14 l 219 -14 q 98 31 147 -14 q 49 149 49 76 l 49 149 q 98 265 49 221 q 219 310 147 310 l 219 310 q 341 265 292 310 q 390 149 390 221 l 390 149 q 341 31 390 76 q 219 -14 292 -14 z "},",":{"ha":439,"x_min":49,"x_max":390,"o":"m 225 -253 l 92 -253 q 72 -244 78 -253 q 71 -224 67 -236 l 71 -224 l 146 0 q 76 57 103 18 q 49 149 49 96 l 49 149 q 98 265 49 221 q 219 310 147 310 l 219 310 q 341 265 292 310 q 390 149 390 221 l 390 149 q 381 68 390 106 q 353 -14 372 31 q 304 -124 335 -58 l 304 -124 l 254 -233 q 225 -253 246 -253 l 225 -253 z "},";":{"ha":439,"x_min":49,"x_max":390,"o":"m 225 -253 l 92 -253 q 72 -244 78 -253 q 71 -224 67 -236 l 71 -224 l 146 0 q 76 57 103 18 q 49 149 49 96 l 49 149 q 98 265 49 221 q 219 310 147 310 l 219 310 q 341 265 292 310 q 390 149 390 221 l 390 149 q 381 68 390 106 q 353 -14 372 31 q 304 -124 335 -58 l 304 -124 l 254 -233 q 225 -253 246 -253 l 225 -253 z m 219 432 l 219 432 q 98 477 147 432 q 49 594 49 522 l 49 594 q 98 711 49 667 q 219 756 147 756 l 219 756 q 341 711 292 756 q 390 594 390 667 l 390 594 q 341 477 390 522 q 219 432 292 432 z "},"?":{"ha":815,"x_min":4,"x_max":767,"o":"m 510 371 l 263 371 q 238 396 238 371 l 238 396 l 233 558 q 258 583 233 583 l 258 583 l 293 583 q 426 614 392 583 q 460 694 460 644 l 460 694 q 438 749 460 729 q 381 769 417 769 l 381 769 q 293 721 324 769 l 293 721 q 261 706 281 701 l 261 706 l 31 758 q 13 789 4 765 l 13 789 q 162 975 58 911 q 393 1039 265 1039 l 393 1039 q 587 1001 503 1039 q 719 893 671 963 q 767 731 767 824 l 767 731 q 706 547 767 628 q 536 436 644 467 l 536 436 l 535 396 q 510 371 535 371 l 510 371 z m 385 -14 l 385 -14 q 267 30 315 -14 q 219 143 219 74 l 219 143 q 267 257 219 214 q 385 300 315 300 l 385 300 q 502 257 454 300 q 550 143 550 214 l 550 143 q 502 30 550 74 q 385 -14 454 -14 z "},"!":{"ha":439,"x_min":54,"x_max":385,"o":"m 329 371 l 115 371 q 89 396 89 371 l 89 396 l 71 994 q 94 1019 71 1019 l 94 1019 l 350 1019 q 374 994 374 1019 l 374 994 l 356 396 q 329 371 356 371 l 329 371 z m 219 -14 l 219 -14 q 102 30 150 -14 q 54 143 54 74 l 54 143 q 102 257 54 214 q 219 300 150 300 l 219 300 q 337 257 289 300 q 385 143 385 214 l 385 143 q 337 30 385 74 q 219 -14 289 -14 z "},"'":{"ha":439,"x_min":72,"x_max":367,"o":"m 313 575 l 126 575 q 101 599 103 575 l 101 599 l 75 993 q 100 1019 72 1019 l 100 1019 l 339 1019 q 364 993 367 1019 l 364 993 l 338 599 q 313 575 336 575 l 313 575 z "},"\"":{"ha":803,"x_min":72,"x_max":731,"o":"m 313 575 l 126 575 q 101 599 103 575 l 101 599 l 75 993 q 100 1019 72 1019 l 100 1019 l 339 1019 q 364 993 367 1019 l 364 993 l 338 599 q 313 575 336 575 l 313 575 z m 676 575 l 490 575 q 465 599 467 575 l 465 599 l 439 993 q 464 1019 436 1019 l 464 1019 l 703 1019 q 728 993 731 1019 l 728 993 l 701 599 q 676 575 700 575 l 676 575 z "},"‘":{"ha":439,"x_min":69,"x_max":369,"o":"m 219 553 l 219 553 q 112 592 154 553 q 69 693 69 632 l 69 693 q 76 741 69 715 q 101 811 82 767 q 154 931 119 856 l 154 931 l 188 1001 q 217 1019 197 1019 l 217 1019 l 329 1019 q 349 1011 343 1019 q 350 990 354 1003 l 350 990 l 289 822 q 348 772 326 806 q 369 693 369 738 l 369 693 q 327 592 369 632 q 219 553 285 553 z "},"’":{"ha":439,"x_min":69,"x_max":369,"o":"m 222 575 l 110 575 q 90 583 96 575 q 89 604 85 592 l 89 604 l 150 772 q 91 823 113 789 q 69 901 69 857 l 69 901 q 112 1002 69 963 q 219 1042 154 1042 l 219 1042 q 327 1002 285 1042 q 369 901 369 963 l 369 901 q 363 853 369 879 q 338 784 356 828 q 285 664 319 740 l 285 664 l 251 593 q 222 575 244 575 l 222 575 z "},"“":{"ha":803,"x_min":69,"x_max":733,"o":"m 219 553 l 219 553 q 112 592 154 553 q 69 693 69 632 l 69 693 q 76 741 69 715 q 101 811 82 767 q 154 931 119 856 l 154 931 l 188 1001 q 217 1019 197 1019 l 217 1019 l 329 1019 q 349 1011 343 1019 q 350 990 354 1003 l 350 990 l 289 822 q 348 772 326 806 q 369 693 369 738 l 369 693 q 327 592 369 632 q 219 553 285 553 z m 583 553 l 583 553 q 476 592 518 553 q 433 693 433 632 l 433 693 q 440 741 433 715 q 465 811 446 767 q 518 931 483 856 l 518 931 l 551 1001 q 581 1019 561 1019 l 581 1019 l 693 1019 q 713 1011 707 1019 q 714 990 718 1003 l 714 990 l 653 822 q 712 772 690 806 q 733 693 733 738 l 733 693 q 691 592 733 632 q 583 553 649 553 z "},"”":{"ha":803,"x_min":69,"x_max":733,"o":"m 222 575 l 110 575 q 90 583 96 575 q 89 604 85 592 l 89 604 l 150 772 q 91 823 113 789 q 69 901 69 857 l 69 901 q 112 1002 69 963 q 219 1042 154 1042 l 219 1042 q 327 1002 285 1042 q 369 901 369 963 l 369 901 q 363 853 369 879 q 338 784 356 828 q 285 664 319 740 l 285 664 l 251 593 q 222 575 244 575 l 222 575 z m 586 575 l 474 575 q 454 583 460 575 q 453 604 449 592 l 453 604 l 514 772 q 455 823 476 789 q 433 901 433 857 l 433 901 q 476 1002 433 963 q 583 1042 518 1042 l 583 1042 q 691 1002 649 1042 q 733 901 733 963 l 733 901 q 726 853 733 879 q 701 784 719 828 q 649 664 683 740 l 649 664 l 615 593 q 586 575 608 575 l 586 575 z "},"…":{"ha":1389,"x_min":61,"x_max":1328,"o":"m 232 -14 l 232 -14 q 110 31 160 -14 q 61 149 61 76 l 61 149 q 110 265 61 221 q 232 310 160 310 l 232 310 q 353 265 304 310 q 403 149 403 221 l 403 149 q 353 31 403 76 q 232 -14 304 -14 z m 693 -14 l 693 -14 q 572 31 621 -14 q 522 149 522 76 l 522 149 q 572 265 522 221 q 693 310 621 310 l 693 310 q 815 265 765 310 q 864 149 864 221 l 864 149 q 815 31 864 76 q 693 -14 765 -14 z m 1157 -14 l 1157 -14 q 1035 31 1085 -14 q 986 149 986 76 l 986 149 q 1035 265 986 221 q 1157 310 1085 310 l 1157 310 q 1278 265 1229 310 q 1328 149 1328 221 l 1328 149 q 1278 31 1328 76 q 1157 -14 1229 -14 z "}," ":{"ha":278,"x_min":null,"x_max":null,"o":""}," ":{"ha":694,"x_min":null,"x_max":null,"o":""}," ":{"ha":1389,"x_min":null,"x_max":null,"o":""}," ":{"ha":694,"x_min":null,"x_max":null,"o":""}," ":{"ha":1389,"x_min":null,"x_max":null,"o":""}," ":{"ha":463,"x_min":null,"x_max":null,"o":""}," ":{"ha":347,"x_min":null,"x_max":null,"o":""}," ":{"ha":232,"x_min":null,"x_max":null,"o":""}," ":{"ha":833,"x_min":null,"x_max":null,"o":""}," ":{"ha":439,"x_min":null,"x_max":null,"o":""}," ":{"ha":278,"x_min":null,"x_max":null,"o":""}," ":{"ha":231,"x_min":null,"x_max":null,"o":""},"​":{"ha":0,"x_min":null,"x_max":null,"o":""},"﻿":{"ha":0,"x_min":null,"x_max":null,"o":""},"⁄":{"ha":167,"x_min":-356,"x_max":522,"o":"m -157 0 l -331 0 q -350 8 -344 0 q -347 31 -356 17 l -347 31 l 293 1003 q 324 1019 304 1019 l 324 1019 l 497 1019 q 517 1011 513 1019 q 514 989 522 1003 l 514 989 l -126 17 q -157 0 -136 0 l -157 0 z "},"%":{"ha":1317,"x_min":21,"x_max":1296,"o":"m 419 0 l 246 0 q 226 8 232 0 q 229 31 221 17 l 229 31 l 869 1003 q 900 1019 881 1019 l 900 1019 l 1074 1019 q 1094 1011 1089 1019 q 1090 989 1099 1003 l 1090 989 l 450 17 q 419 0 440 0 l 419 0 z m 1029 -14 l 1029 -14 q 834 64 906 -14 q 763 279 763 142 l 763 279 q 834 494 763 417 q 1029 572 906 572 l 1029 572 q 1224 494 1153 572 q 1296 279 1296 417 l 1296 279 q 1224 64 1296 142 q 1029 -14 1153 -14 z m 1029 153 l 1029 153 q 1068 181 1054 153 q 1082 279 1082 210 l 1082 279 q 1068 377 1082 349 q 1029 406 1054 406 l 1029 406 q 990 377 1004 406 q 976 279 976 349 l 976 279 q 990 181 976 210 q 1029 153 1004 153 z m 288 447 l 288 447 q 92 525 164 447 q 21 740 21 603 l 21 740 q 92 956 21 878 q 288 1033 164 1033 l 288 1033 q 483 956 411 1033 q 554 740 554 878 l 554 740 q 483 525 554 603 q 288 447 411 447 z m 288 614 l 288 614 q 326 642 313 614 q 340 740 340 671 l 340 740 q 326 838 340 810 q 288 867 313 867 l 288 867 q 249 838 263 867 q 235 740 235 810 l 235 740 q 249 642 235 671 q 288 614 263 614 z "},"‰":{"ha":1892,"x_min":21,"x_max":1871,"o":"m 419 0 l 246 0 q 226 8 232 0 q 229 31 221 17 l 229 31 l 869 1003 q 900 1019 881 1019 l 900 1019 l 1074 1019 q 1094 1011 1089 1019 q 1090 989 1099 1003 l 1090 989 l 450 17 q 419 0 440 0 l 419 0 z m 1029 -14 l 1029 -14 q 834 64 906 -14 q 763 279 763 142 l 763 279 q 834 494 763 417 q 1029 572 906 572 l 1029 572 q 1224 494 1153 572 q 1296 279 1296 417 l 1296 279 q 1224 64 1296 142 q 1029 -14 1153 -14 z m 1029 153 l 1029 153 q 1068 181 1054 153 q 1082 279 1082 210 l 1082 279 q 1068 377 1082 349 q 1029 406 1054 406 l 1029 406 q 990 377 1004 406 q 976 279 976 349 l 976 279 q 990 181 976 210 q 1029 153 1004 153 z m 1604 -14 l 1604 -14 q 1409 64 1481 -14 q 1338 279 1338 142 l 1338 279 q 1409 494 1338 417 q 1604 572 1481 572 l 1604 572 q 1799 494 1728 572 q 1871 279 1871 417 l 1871 279 q 1799 64 1871 142 q 1604 -14 1728 -14 z m 1604 153 l 1604 153 q 1643 181 1629 153 q 1657 279 1657 210 l 1657 279 q 1643 377 1657 349 q 1604 406 1629 406 l 1604 406 q 1565 377 1579 406 q 1551 279 1551 349 l 1551 279 q 1565 181 1551 210 q 1604 153 1579 153 z m 288 447 l 288 447 q 92 525 164 447 q 21 740 21 603 l 21 740 q 92 956 21 878 q 288 1033 164 1033 l 288 1033 q 483 956 411 1033 q 554 740 554 878 l 554 740 q 483 525 554 603 q 288 447 411 447 z m 288 614 l 288 614 q 326 642 313 614 q 340 740 340 671 l 340 740 q 326 838 340 810 q 288 867 313 867 l 288 867 q 249 838 263 867 q 235 740 235 810 l 235 740 q 249 642 235 671 q 288 614 263 614 z "},"½":{"ha":1317,"x_min":53,"x_max":1258,"o":"m 399 0 l 225 0 q 206 8 211 0 q 208 31 200 17 l 208 31 l 849 1003 q 879 1019 860 1019 l 879 1019 l 1053 1019 q 1073 1011 1068 1019 q 1069 989 1078 1003 l 1069 989 l 429 17 q 399 0 419 0 l 399 0 z m 1236 0 l 803 0 q 781 22 781 0 l 781 22 l 781 47 q 792 74 781 60 l 792 74 l 940 231 q 1005 306 982 275 q 1028 360 1028 338 l 1028 360 q 1018 385 1028 376 q 994 394 1008 394 l 994 394 q 965 385 976 394 q 943 351 954 375 l 943 351 q 914 338 935 333 l 914 338 l 785 372 q 769 399 764 379 l 769 399 q 858 525 793 478 q 1014 572 924 572 l 1014 572 q 1178 520 1115 572 q 1242 382 1242 468 l 1242 382 q 1206 275 1242 325 q 1093 167 1171 225 l 1093 167 l 1236 167 q 1258 144 1258 167 l 1258 144 l 1258 22 q 1236 0 1258 0 l 1236 0 z m 400 461 l 236 461 q 214 483 214 461 l 214 483 l 214 781 l 113 756 q 85 768 93 751 l 85 768 l 61 815 q 68 846 53 832 l 68 846 l 271 1010 q 299 1019 282 1019 l 299 1019 l 400 1019 q 422 997 422 1019 l 422 997 l 422 483 q 400 461 422 461 l 400 461 z "},"¼":{"ha":1317,"x_min":53,"x_max":1276,"o":"m 454 0 l 281 0 q 261 8 267 0 q 264 31 256 17 l 264 31 l 904 1003 q 935 1019 915 1019 l 935 1019 l 1108 1019 q 1128 1011 1124 1019 q 1125 989 1133 1003 l 1125 989 l 485 17 q 454 0 475 0 l 454 0 z m 1178 0 l 1038 0 q 1015 22 1015 0 l 1015 22 l 1015 94 l 764 94 q 742 117 742 94 l 742 117 l 742 142 q 751 169 742 156 l 751 169 l 1051 546 q 1078 558 1060 558 l 1078 558 l 1178 558 q 1200 536 1200 558 l 1200 536 l 1200 215 l 1254 215 q 1276 193 1276 215 l 1276 193 l 1276 117 q 1254 94 1276 94 l 1254 94 l 1200 94 l 1200 22 q 1178 0 1200 0 l 1178 0 z m 1015 318 l 935 215 l 1015 215 l 1015 318 z m 400 461 l 236 461 q 214 483 214 461 l 214 483 l 214 781 l 113 756 q 85 768 93 751 l 85 768 l 61 815 q 68 846 53 832 l 68 846 l 271 1010 q 299 1019 282 1019 l 299 1019 l 400 1019 q 422 997 422 1019 l 422 997 l 422 483 q 400 461 422 461 l 400 461 z "},"¾":{"ha":1317,"x_min":11,"x_max":1276,"o":"m 454 0 l 281 0 q 261 8 267 0 q 264 31 256 17 l 264 31 l 904 1003 q 935 1019 915 1019 l 935 1019 l 1108 1019 q 1128 1011 1124 1019 q 1125 989 1133 1003 l 1125 989 l 485 17 q 454 0 475 0 l 454 0 z m 1178 0 l 1038 0 q 1015 22 1015 0 l 1015 22 l 1015 94 l 764 94 q 742 117 742 94 l 742 117 l 742 142 q 751 169 742 156 l 751 169 l 1051 546 q 1078 558 1060 558 l 1078 558 l 1178 558 q 1200 536 1200 558 l 1200 536 l 1200 215 l 1254 215 q 1276 193 1276 215 l 1276 193 l 1276 117 q 1254 94 1276 94 l 1254 94 l 1200 94 l 1200 22 q 1178 0 1200 0 l 1178 0 z m 1015 318 l 935 215 l 1015 215 l 1015 318 z m 268 447 l 268 447 q 106 492 168 447 q 19 606 44 536 l 19 606 q 35 632 11 625 l 35 632 l 150 664 q 178 650 167 669 l 178 650 q 210 617 192 626 q 250 607 229 607 l 250 607 q 308 650 308 607 l 308 650 q 294 678 308 665 q 250 690 279 690 l 250 690 l 229 690 q 210 713 210 690 l 210 713 l 210 785 q 229 807 210 807 l 229 807 l 250 807 q 291 818 279 807 q 303 843 303 829 l 303 843 q 290 871 303 861 q 260 881 278 881 l 260 881 q 200 846 222 881 l 200 846 q 172 833 189 828 l 172 833 l 56 867 q 40 894 31 874 l 40 894 q 124 997 65 961 q 272 1033 182 1033 l 272 1033 q 439 993 372 1033 q 506 874 506 953 l 506 874 q 484 804 506 838 q 422 751 463 771 l 422 751 q 492 708 467 738 q 517 626 517 678 l 517 626 q 483 531 517 571 q 392 469 449 490 q 268 447 336 447 z "},"$":{"ha":874,"x_min":36,"x_max":807,"o":"m 529 -104 l 343 -104 q 318 -79 318 -104 l 318 -79 l 318 53 q 150 131 221 74 q 44 279 79 189 l 44 279 q 63 310 36 303 l 63 310 l 289 363 q 319 346 311 367 l 319 346 q 421 281 351 281 l 421 281 q 471 319 471 281 l 471 319 q 456 352 471 339 q 406 378 442 365 l 406 378 l 343 399 q 141 515 206 443 q 76 688 76 586 l 76 688 q 145 863 76 789 q 318 964 214 936 l 318 964 l 318 1099 q 343 1124 318 1124 l 343 1124 l 529 1124 q 554 1099 554 1124 l 554 1099 l 554 964 q 703 890 638 943 q 799 749 768 838 l 799 749 q 782 717 807 724 l 782 717 l 549 658 q 517 676 528 653 l 517 676 q 474 728 499 717 q 428 739 450 739 l 428 739 q 397 731 410 739 q 383 706 383 722 l 383 706 q 399 672 383 688 q 478 632 415 656 l 478 632 l 539 610 q 734 495 672 561 q 796 329 796 429 l 796 329 q 731 156 796 229 q 554 57 667 83 l 554 57 l 554 -79 q 529 -104 554 -104 l 529 -104 z "},"¢":{"ha":842,"x_min":36,"x_max":821,"o":"m 535 0 l 349 0 q 324 25 324 0 l 324 25 l 324 117 q 113 247 189 146 q 36 496 36 349 l 36 496 q 113 744 36 643 q 324 875 189 846 l 324 875 l 324 994 q 349 1019 324 1019 l 349 1019 l 535 1019 q 560 994 560 1019 l 560 994 l 560 869 q 706 792 643 847 q 799 644 769 738 l 799 644 q 782 613 807 619 l 782 613 l 567 554 q 535 569 546 547 l 535 569 q 494 610 518 599 q 444 622 471 622 l 444 622 q 370 587 396 622 q 344 496 344 551 l 344 496 q 370 405 344 440 q 444 369 396 369 l 444 369 q 494 382 469 369 q 533 426 519 394 l 533 426 q 565 443 544 449 l 565 443 l 796 385 q 813 353 821 378 l 813 353 q 714 203 781 261 q 560 122 647 146 l 560 122 l 560 25 q 535 0 560 0 l 535 0 z "},"£":{"ha":890,"x_min":42,"x_max":869,"o":"m 801 0 l 67 0 q 42 25 42 0 l 42 25 l 42 106 q 51 138 42 122 l 51 138 q 113 241 90 200 q 144 315 135 282 q 154 389 154 349 l 154 389 q 153 414 154 401 l 153 414 l 83 414 q 58 439 58 414 l 58 439 l 58 542 q 83 567 58 567 l 83 567 l 121 567 q 108 633 114 597 q 103 714 103 668 l 103 714 q 149 884 103 811 q 278 998 196 957 q 469 1039 361 1039 l 469 1039 q 713 965 610 1039 q 861 760 817 890 l 861 760 q 844 728 869 735 l 844 728 l 617 665 q 585 682 596 658 l 585 682 q 492 749 554 749 l 492 749 q 444 727 460 749 q 429 669 429 706 l 429 669 q 435 620 429 646 q 447 567 440 594 l 447 567 l 599 567 q 624 542 624 567 l 624 542 l 624 439 q 599 414 624 414 l 599 414 l 458 414 q 404 297 446 347 l 404 297 l 801 297 q 826 272 826 297 l 826 272 l 826 25 q 801 0 826 0 l 801 0 z "},"¥":{"ha":1064,"x_min":8,"x_max":1056,"o":"m 374 186 l 190 186 q 165 211 165 186 l 165 211 l 165 272 q 190 297 165 297 l 190 297 l 374 297 l 374 353 l 190 353 q 165 378 165 353 l 165 378 l 165 439 q 190 464 165 464 l 190 464 l 315 464 l 15 989 q 14 1011 8 1003 q 33 1019 19 1019 l 33 1019 l 343 1019 q 372 1001 364 1019 l 372 1001 l 536 654 l 697 1001 q 726 1019 704 1019 l 726 1019 l 1031 1019 q 1051 1011 1046 1019 q 1049 989 1056 1003 l 1049 989 l 746 464 l 872 464 q 897 439 897 464 l 897 439 l 897 378 q 872 353 897 353 l 872 353 l 690 353 l 690 297 l 872 297 q 897 272 897 297 l 897 272 l 897 211 q 872 186 897 186 l 872 186 l 690 186 l 690 25 q 665 0 690 0 l 665 0 l 399 0 q 374 25 374 0 l 374 25 l 374 186 z "},"€":{"ha":1024,"x_min":14,"x_max":983,"o":"m 106 371 l 39 371 q 14 396 14 371 l 14 396 l 14 457 q 39 482 14 482 l 39 482 l 94 482 q 94 510 94 496 l 94 510 q 94 538 94 524 l 94 538 l 39 538 q 14 563 14 538 l 14 563 l 14 624 q 39 649 14 649 l 39 649 l 106 649 q 251 937 136 835 q 549 1039 365 1039 l 549 1039 q 806 969 700 1039 q 964 768 913 900 l 964 768 q 947 736 972 743 l 947 736 l 694 667 q 661 679 675 661 l 661 679 q 611 724 639 713 q 549 736 583 736 l 549 736 q 481 717 511 736 q 433 649 450 697 l 433 649 l 596 649 q 621 624 621 649 l 621 624 l 621 563 q 596 538 621 538 l 596 538 l 414 538 q 414 510 414 525 l 414 510 q 414 482 414 494 l 414 482 l 596 482 q 621 457 621 482 l 621 457 l 621 396 q 596 371 621 371 l 596 371 l 432 371 q 481 303 450 322 q 549 283 511 283 l 549 283 q 611 297 581 283 q 661 346 642 311 l 661 346 q 693 361 672 368 l 693 361 l 958 294 q 975 265 983 288 l 975 265 q 883 117 944 182 q 735 17 821 53 q 549 -19 650 -19 l 549 -19 q 251 83 365 -19 q 106 371 136 185 l 106 371 z "},"¤":{"ha":892,"x_min":42,"x_max":850,"o":"m 182 167 l 182 167 l 60 275 q 58 310 42 293 l 58 310 l 146 407 q 118 536 118 465 l 118 536 q 147 667 118 608 l 147 667 l 58 765 q 60 800 42 782 l 60 800 l 182 908 q 217 906 199 925 l 217 906 l 303 808 q 446 833 368 833 l 446 833 q 589 808 524 833 l 589 808 l 675 906 q 710 908 692 926 l 710 908 l 832 800 q 833 765 850 782 l 833 765 l 744 667 q 774 536 774 608 l 774 536 q 746 407 774 465 l 746 407 l 833 310 q 832 275 850 293 l 832 275 l 710 167 q 675 169 693 150 l 675 169 l 589 267 q 446 242 524 242 l 446 242 q 303 267 368 242 l 303 267 l 217 169 q 182 167 199 150 z m 446 436 l 446 436 q 518 464 490 436 q 546 538 546 492 l 546 538 q 518 611 546 583 q 446 639 490 639 l 446 639 q 374 611 401 639 q 346 538 346 583 l 346 538 q 374 464 346 492 q 446 436 401 436 z "},"^":{"ha":833,"x_min":26,"x_max":807,"o":"m 304 468 l 51 468 q 32 476 38 468 q 33 499 26 485 l 33 499 l 318 1003 q 347 1019 329 1019 l 347 1019 l 486 1019 q 515 1001 504 1019 l 515 1001 l 800 499 q 802 476 807 485 q 782 468 797 468 l 782 468 l 536 468 q 507 488 515 468 l 507 488 l 421 676 l 333 488 q 304 468 325 468 l 304 468 z "},"+":{"ha":833,"x_min":75,"x_max":758,"o":"m 529 111 l 304 111 q 287 119 294 111 q 279 136 279 126 l 279 136 l 279 322 l 100 322 q 83 330 90 322 q 75 347 75 338 l 75 347 l 75 558 q 83 576 75 569 q 100 583 90 583 l 100 583 l 279 583 l 279 769 q 287 788 279 781 q 304 794 294 794 l 304 794 l 529 794 q 547 788 540 794 q 554 769 554 781 l 554 769 l 554 583 l 733 583 q 751 576 744 583 q 758 558 758 569 l 758 558 l 758 347 q 751 330 758 338 q 733 322 744 322 l 733 322 l 554 322 l 554 136 q 547 119 554 126 q 529 111 540 111 l 529 111 z "},"−":{"ha":833,"x_min":75,"x_max":758,"o":"m 733 322 l 100 322 q 83 330 90 322 q 75 347 75 338 l 75 347 l 75 558 q 83 576 75 569 q 100 583 90 583 l 100 583 l 733 583 q 751 576 744 583 q 758 558 758 569 l 758 558 l 758 347 q 751 330 758 338 q 733 322 744 322 l 733 322 z "},"=":{"ha":833,"x_min":75,"x_max":758,"o":"m 733 133 l 100 133 q 83 141 90 133 q 75 158 75 149 l 75 158 l 75 369 q 83 388 75 381 q 100 394 90 394 l 100 394 l 733 394 q 751 388 744 394 q 758 369 758 381 l 758 369 l 758 158 q 751 141 758 149 q 733 133 744 133 l 733 133 z m 733 490 l 100 490 q 83 498 90 490 q 75 515 75 506 l 75 515 l 75 726 q 83 744 75 738 q 100 751 90 751 l 100 751 l 733 751 q 751 744 744 751 q 758 726 758 738 l 758 726 l 758 515 q 751 498 758 506 q 733 490 744 490 l 733 490 z "},"÷":{"ha":833,"x_min":75,"x_max":758,"o":"m 417 611 l 417 611 q 327 645 364 611 q 290 732 290 679 l 290 732 q 327 819 290 786 q 417 851 364 851 l 417 851 q 507 819 471 851 q 543 732 543 786 l 543 732 q 507 644 543 678 q 417 611 471 611 z m 733 336 l 100 336 q 83 344 90 336 q 75 361 75 351 l 75 361 l 75 544 q 83 563 75 556 q 100 569 90 569 l 100 569 l 733 569 q 751 563 744 569 q 758 544 758 556 l 758 544 l 758 361 q 751 344 758 351 q 733 336 744 336 l 733 336 z m 417 54 l 417 54 q 327 87 364 54 q 290 175 290 119 l 290 175 q 327 261 290 228 q 417 294 364 294 l 417 294 q 507 261 471 294 q 543 175 543 228 l 543 175 q 507 87 543 119 q 417 54 471 54 z "},"<":{"ha":833,"x_min":75,"x_max":696,"o":"m 696 315 l 696 69 q 688 51 696 56 q 667 51 679 46 l 667 51 l 93 338 q 75 368 75 346 l 75 368 l 75 506 q 93 536 75 528 l 93 536 l 667 822 q 688 824 679 829 q 696 804 696 819 l 696 804 l 696 565 q 676 536 696 544 l 676 536 l 447 440 l 676 344 q 696 315 696 336 l 696 315 z "},">":{"ha":833,"x_min":138,"x_max":758,"o":"m 740 338 l 167 51 q 146 51 154 46 q 138 69 138 56 l 138 69 l 138 308 q 157 338 138 329 l 157 338 l 386 433 l 157 529 q 138 558 138 538 l 138 558 l 138 804 q 146 824 138 819 q 167 822 154 829 l 167 822 l 740 536 q 758 506 758 528 l 758 506 l 758 368 q 740 338 758 346 l 740 338 z "},"~":{"ha":833,"x_min":33,"x_max":801,"o":"m 558 228 l 558 228 q 465 248 504 228 q 395 294 425 268 q 343 341 365 321 q 301 361 321 361 l 301 361 q 268 338 279 361 q 256 258 257 314 l 256 258 q 231 232 256 232 l 231 232 l 58 232 q 33 258 33 232 l 33 258 q 99 533 38 439 q 275 626 161 626 l 275 626 q 369 606 329 626 q 438 560 408 586 q 490 513 468 533 q 532 493 513 493 l 532 493 q 565 517 554 493 q 578 596 576 540 l 578 596 q 603 622 578 622 l 603 622 l 775 622 q 799 582 801 622 l 799 582 q 732 319 793 410 q 558 228 671 228 z "},"¬":{"ha":833,"x_min":69,"x_max":744,"o":"m 719 97 l 494 97 q 469 122 469 97 l 469 122 l 469 350 l 94 350 q 69 375 69 350 l 69 375 l 69 586 q 94 611 69 611 l 94 611 l 719 611 q 744 586 744 611 l 744 586 l 744 122 q 719 97 744 97 l 719 97 z "},"×":{"ha":833,"x_min":71,"x_max":764,"o":"m 232 118 l 232 118 l 83 267 q 76 285 76 274 q 83 303 76 296 l 83 303 l 228 447 l 79 594 q 72 613 71 601 q 79 632 72 625 l 79 632 l 238 790 q 274 790 257 807 l 274 790 l 422 642 l 567 786 q 585 793 574 793 q 603 786 596 793 l 603 786 l 751 636 q 759 617 760 628 q 751 600 758 607 l 751 600 l 607 457 l 756 308 q 763 289 764 300 q 756 271 763 278 l 756 271 l 597 114 q 579 107 590 107 q 561 114 568 107 l 561 114 l 413 263 l 268 118 q 249 110 260 110 q 232 118 239 111 z "},"_":{"ha":788,"x_min":42,"x_max":746,"o":"m 722 -303 l 65 -303 q 49 -295 56 -303 q 42 -278 42 -287 l 42 -278 l 42 -67 q 49 -49 42 -56 q 65 -42 56 -42 l 65 -42 l 722 -42 q 739 -49 732 -42 q 746 -67 746 -56 l 746 -67 l 746 -278 q 739 -295 746 -287 q 722 -303 732 -303 l 722 -303 z "},"§":{"ha":783,"x_min":46,"x_max":722,"o":"m 368 -147 l 368 -147 q 54 39 122 -147 l 54 39 q 71 69 46 63 l 71 69 l 265 117 q 296 100 285 122 l 296 100 q 349 61 317 61 l 349 61 q 378 71 367 61 q 389 96 389 81 l 389 96 q 376 151 389 118 l 376 151 q 210 190 282 153 q 97 292 138 226 q 56 442 56 357 l 56 442 q 83 568 56 511 q 161 664 111 625 l 161 664 q 122 728 136 694 q 107 808 107 761 l 107 808 q 147 928 107 876 q 255 1010 188 981 q 400 1039 322 1039 l 400 1039 q 714 853 646 1039 l 714 853 q 697 822 722 829 l 697 822 l 503 775 q 472 792 483 769 l 472 792 q 419 831 451 831 l 419 831 q 390 821 401 831 q 379 792 379 811 l 379 792 q 383 767 379 783 q 396 732 388 751 l 396 732 q 620 649 538 728 q 703 442 703 571 l 703 442 q 610 225 703 304 l 610 225 q 647 162 633 194 q 661 83 661 129 l 661 83 q 621 -37 661 15 q 514 -118 581 -89 q 368 -147 447 -147 z m 379 344 l 379 344 q 448 372 422 344 q 474 442 474 399 l 474 442 q 448 513 474 486 q 379 539 422 539 l 379 539 q 310 513 336 539 q 285 442 285 486 l 285 442 q 310 372 285 399 q 379 344 336 344 z "},"¶":{"ha":960,"x_min":42,"x_max":857,"o":"m 540 -125 l 382 -125 q 357 -100 357 -125 l 357 -100 l 357 276 q 201 335 272 289 q 85 458 129 381 q 42 646 42 536 l 42 646 q 96 851 42 768 q 235 977 150 935 q 417 1019 321 1019 l 417 1019 l 832 1019 q 857 994 857 1019 l 857 994 l 857 -100 q 832 -125 857 -125 l 832 -125 l 674 -125 q 649 -100 649 -125 l 649 -100 l 649 825 l 565 825 l 565 -100 q 540 -125 565 -125 l 540 -125 z "},"#":{"ha":1104,"x_min":25,"x_max":1079,"o":"m 357 0 l 150 0 q 128 28 121 0 l 128 28 l 165 203 l 54 203 q 32 231 25 203 l 32 231 l 74 425 q 100 447 78 447 l 100 447 l 217 447 l 244 579 l 133 579 q 111 607 104 579 l 111 607 l 153 801 q 179 824 157 824 l 179 824 l 296 824 l 332 993 q 358 1015 336 1015 l 358 1015 l 565 1015 q 588 988 594 1015 l 588 988 l 553 824 l 682 824 l 718 993 q 744 1015 722 1015 l 744 1015 l 953 1015 q 975 988 982 1015 l 975 988 l 940 824 l 1050 824 q 1072 796 1079 824 l 1072 796 l 1031 601 q 1004 579 1026 579 l 1004 579 l 888 579 l 860 447 l 971 447 q 993 419 1000 447 l 993 419 l 951 225 q 925 203 947 203 l 925 203 l 808 203 l 769 22 q 743 0 765 0 l 743 0 l 538 0 q 515 28 508 0 l 515 28 l 551 203 l 421 203 l 383 22 q 357 0 379 0 l 357 0 z m 501 579 l 474 447 l 603 447 l 631 579 l 501 579 z "},"|":{"ha":489,"x_min":92,"x_max":397,"o":"m 372 -153 l 117 -153 q 99 -145 107 -153 q 92 -128 92 -137 l 92 -128 l 92 1017 q 99 1035 92 1028 q 117 1042 107 1042 l 117 1042 l 372 1042 q 390 1035 383 1042 q 397 1017 397 1028 l 397 1017 l 397 -128 q 390 -145 397 -137 q 372 -153 383 -153 l 372 -153 z "},"†":{"ha":703,"x_min":42,"x_max":661,"o":"m 479 -125 l 224 -125 q 199 -100 199 -125 l 199 -100 l 199 558 l 67 558 q 42 583 42 558 l 42 583 l 42 783 q 67 808 42 808 l 67 808 l 199 808 l 199 994 q 224 1019 199 1019 l 224 1019 l 479 1019 q 504 994 504 1019 l 504 994 l 504 808 l 636 808 q 661 783 661 808 l 661 783 l 661 583 q 636 558 661 558 l 636 558 l 504 558 l 504 -100 q 479 -125 504 -125 l 479 -125 z "},"‡":{"ha":703,"x_min":42,"x_max":661,"o":"m 199 100 l 67 100 q 42 125 42 100 l 42 125 l 42 325 q 67 350 42 350 l 67 350 l 199 350 l 199 558 l 67 558 q 42 583 42 558 l 42 583 l 42 783 q 67 808 42 808 l 67 808 l 199 808 l 199 994 q 224 1019 199 1019 l 224 1019 l 479 1019 q 504 994 504 1019 l 504 994 l 504 808 l 636 808 q 661 783 661 808 l 661 783 l 661 583 q 636 558 661 558 l 636 558 l 504 558 l 504 350 l 636 350 q 661 325 661 350 l 661 325 l 661 125 q 636 100 661 100 l 636 100 l 504 100 l 504 -100 q 479 -125 504 -125 l 479 -125 l 224 -125 q 199 -100 199 -125 l 199 -100 l 199 100 z "},"&":{"ha":1063,"x_min":56,"x_max":1035,"o":"m 519 -19 l 519 -19 q 174 66 293 -19 q 56 290 56 151 l 56 290 q 101 440 56 378 q 235 532 147 501 l 235 532 q 93 751 93 608 l 93 751 q 142 900 93 835 q 278 1002 192 965 q 476 1039 365 1039 l 476 1039 q 731 969 629 1039 q 868 772 832 900 l 868 772 q 849 742 874 749 l 849 742 l 604 690 q 572 707 582 686 l 572 707 q 482 775 546 775 l 482 775 q 426 754 447 775 q 404 700 404 733 l 404 700 q 472 632 404 632 l 472 632 l 510 632 q 535 607 535 632 l 535 607 l 535 431 q 510 406 535 406 l 510 406 l 472 406 q 375 333 375 406 l 375 333 q 524 244 375 244 l 524 244 q 672 350 672 244 l 672 350 q 660 388 672 371 q 626 406 647 406 l 626 406 l 621 406 q 611 417 611 406 l 611 417 l 611 607 q 636 632 611 632 l 636 632 l 1010 632 q 1035 607 1035 632 l 1035 607 l 1035 431 q 1010 406 1035 406 l 1010 406 l 922 406 q 944 352 936 381 q 951 296 951 324 l 951 296 q 898 129 951 200 q 748 19 844 58 q 519 -19 651 -19 z "},"*":{"ha":728,"x_min":46,"x_max":682,"o":"m 196 449 l 196 449 l 122 500 q 114 535 104 514 l 114 535 l 190 688 l 65 769 q 56 803 46 783 l 56 803 l 94 886 q 126 900 104 907 l 126 900 l 265 857 l 290 997 q 318 1019 294 1019 l 318 1019 l 410 1019 q 438 997 433 1019 l 438 997 l 463 857 l 601 900 q 633 886 624 907 l 633 886 l 672 803 q 663 769 682 783 l 663 769 l 538 688 l 614 535 q 606 500 624 514 l 606 500 l 532 449 q 496 451 513 433 l 496 451 l 364 590 l 232 451 q 196 449 215 433 z "},"°":{"ha":619,"x_min":64,"x_max":556,"o":"m 310 597 l 310 597 q 184 624 240 597 q 96 701 128 651 q 64 818 64 751 l 64 818 q 96 935 64 886 q 184 1012 128 985 q 310 1039 240 1039 l 310 1039 q 436 1012 381 1039 q 524 935 492 985 q 556 818 556 886 l 556 818 q 524 701 556 751 q 436 624 492 651 q 310 597 381 597 z m 310 742 l 310 742 q 364 763 343 742 q 385 818 385 783 l 385 818 q 364 874 385 853 q 310 894 343 894 l 310 894 q 256 874 276 894 q 235 818 235 853 l 235 818 q 256 763 235 783 q 310 742 276 742 z "},"-":{"ha":631,"x_min":60,"x_max":571,"o":"m 546 322 l 85 322 q 60 347 60 322 l 60 347 l 60 558 q 85 583 60 583 l 85 583 l 546 583 q 571 558 571 583 l 571 558 l 571 347 q 546 322 571 322 l 546 322 z "},"‐":{"ha":631,"x_min":60,"x_max":571,"o":"m 546 322 l 85 322 q 60 347 60 322 l 60 347 l 60 558 q 85 583 60 583 l 85 583 l 546 583 q 571 558 571 583 l 571 558 l 571 347 q 546 322 571 322 l 546 322 z "},"‑":{"ha":631,"x_min":60,"x_max":571,"o":"m 546 322 l 85 322 q 60 347 60 322 l 60 347 l 60 558 q 85 583 60 583 l 85 583 l 546 583 q 571 558 571 583 l 571 558 l 571 347 q 546 322 571 322 l 546 322 z "},"­":{"ha":631,"x_min":60,"x_max":571,"o":"m 546 322 l 85 322 q 60 347 60 322 l 60 347 l 60 558 q 85 583 60 583 l 85 583 l 546 583 q 571 558 571 583 l 571 558 l 571 347 q 546 322 571 322 l 546 322 z "},"–":{"ha":694,"x_min":0,"x_max":694,"o":"m 669 322 l 25 322 q 0 347 0 322 l 0 347 l 0 558 q 25 583 0 583 l 25 583 l 669 583 q 694 558 694 583 l 694 558 l 694 347 q 669 322 694 322 l 669 322 z "},"—":{"ha":1389,"x_min":0,"x_max":1389,"o":"m 1364 322 l 25 322 q 0 347 0 322 l 0 347 l 0 558 q 25 583 0 583 l 25 583 l 1364 583 q 1389 558 1389 583 l 1389 558 l 1389 347 q 1364 322 1389 322 l 1364 322 z "},"(":{"ha":583,"x_min":50,"x_max":556,"o":"m 533 -208 l 533 -208 q 257 -121 364 -203 q 100 106 150 -39 q 50 444 50 250 l 50 444 q 100 783 50 639 q 256 1010 150 928 q 531 1097 363 1092 l 531 1097 q 556 1072 556 1097 l 556 1072 l 556 814 q 532 788 556 790 l 532 788 q 404 697 439 779 q 369 444 369 615 l 369 444 q 404 192 369 274 q 532 101 439 110 l 532 101 q 556 75 556 99 l 556 75 l 556 -183 q 533 -208 556 -208 z "},")":{"ha":583,"x_min":28,"x_max":533,"o":"m 53 -208 l 53 -208 q 28 -183 28 -208 l 28 -183 l 28 75 q 51 101 28 99 l 51 101 q 180 192 146 110 q 214 444 214 274 l 214 444 q 180 697 214 615 q 51 788 146 779 l 51 788 q 28 814 28 790 l 28 814 l 28 1072 q 50 1097 28 1097 l 50 1097 q 327 1010 221 1092 q 483 783 433 928 q 533 444 533 639 l 533 444 q 483 107 533 251 q 328 -119 433 -37 q 53 -208 222 -201 z "},"/":{"ha":657,"x_min":8,"x_max":649,"o":"m 285 -153 l 36 -153 q 15 -125 8 -153 l 15 -125 l 344 1021 q 372 1042 350 1042 l 372 1042 l 621 1042 q 642 1014 649 1042 l 642 1014 l 313 -132 q 285 -153 307 -153 l 285 -153 z "},"\\":{"ha":657,"x_min":8,"x_max":649,"o":"m 621 -153 l 621 -153 l 372 -153 q 344 -132 350 -153 l 344 -132 l 15 1014 q 36 1042 8 1042 l 36 1042 l 285 1042 q 313 1021 307 1042 l 313 1021 l 642 -125 q 621 -153 649 -153 z "},"[":{"ha":600,"x_min":69,"x_max":572,"o":"m 547 -208 l 94 -208 q 69 -183 69 -208 l 69 -183 l 69 1074 q 94 1099 69 1099 l 94 1099 l 547 1099 q 572 1074 572 1099 l 572 1074 l 572 846 q 547 821 572 821 l 547 821 l 375 821 l 375 69 l 547 69 q 572 44 572 69 l 572 44 l 572 -183 q 547 -208 572 -208 l 547 -208 z "},"]":{"ha":600,"x_min":28,"x_max":531,"o":"m 506 -208 l 53 -208 q 28 -183 28 -208 l 28 -183 l 28 44 q 53 69 28 69 l 53 69 l 225 69 l 225 821 l 53 821 q 28 846 28 821 l 28 846 l 28 1074 q 53 1099 28 1099 l 53 1099 l 506 1099 q 531 1074 531 1099 l 531 1074 l 531 -183 q 506 -208 531 -208 l 506 -208 z "},"{":{"ha":640,"x_min":47,"x_max":613,"o":"m 588 -208 l 553 -208 q 349 -176 436 -208 q 213 -65 261 -144 q 164 156 164 14 l 164 156 l 164 257 q 152 315 164 303 q 117 328 140 328 l 117 328 l 72 328 q 47 353 47 328 l 47 353 l 47 538 q 72 563 47 563 l 72 563 l 117 563 q 152 575 140 563 q 164 633 164 588 l 164 633 l 164 735 q 213 956 164 876 q 349 1067 261 1035 q 553 1099 436 1099 l 553 1099 l 588 1099 q 613 1074 613 1099 l 613 1074 l 613 869 q 588 844 613 844 l 588 844 l 585 844 q 498 814 526 844 q 469 728 469 783 l 469 728 l 469 588 q 445 494 469 528 q 368 444 421 460 l 368 444 q 445 397 421 431 q 469 303 469 363 l 469 303 l 469 163 q 498 76 469 107 q 585 46 526 46 l 585 46 l 588 46 q 613 21 613 46 l 613 21 l 613 -183 q 588 -208 613 -208 l 588 -208 z "},"}":{"ha":640,"x_min":28,"x_max":593,"o":"m 88 -208 l 53 -208 q 28 -183 28 -208 l 28 -183 l 28 21 q 53 46 28 46 l 53 46 l 56 46 q 142 76 114 46 q 171 163 171 107 l 171 163 l 171 303 q 195 397 171 363 q 272 446 219 431 l 272 446 q 195 494 219 460 q 171 588 171 528 l 171 588 l 171 728 q 142 814 171 783 q 56 844 114 844 l 56 844 l 53 844 q 28 869 28 844 l 28 869 l 28 1074 q 53 1099 28 1099 l 53 1099 l 88 1099 q 292 1067 204 1099 q 428 956 379 1035 q 476 735 476 876 l 476 735 l 476 633 q 488 575 476 588 q 524 563 500 563 l 524 563 l 568 563 q 593 538 593 563 l 593 538 l 593 353 q 568 328 593 328 l 568 328 l 524 328 q 488 315 500 328 q 476 257 476 303 l 476 257 l 476 156 q 428 -65 476 14 q 292 -176 379 -144 q 88 -208 204 -208 l 88 -208 z "},"•":{"ha":561,"x_min":69,"x_max":492,"o":"m 281 217 l 281 217 q 174 245 222 217 q 98 322 126 274 q 69 428 69 369 l 69 428 q 98 534 69 486 q 174 610 126 582 q 281 639 222 639 l 281 639 q 387 610 339 639 q 463 534 435 582 q 492 428 492 486 l 492 428 q 463 322 492 369 q 387 245 435 274 q 281 217 339 217 z "},"@":{"ha":1585,"x_min":64,"x_max":1521,"o":"m 778 -365 l 778 -365 q 483 -313 614 -365 q 258 -168 351 -261 q 114 49 164 -75 q 64 318 64 174 l 64 318 q 120 614 64 481 q 276 844 176 747 q 512 994 376 942 q 806 1047 647 1047 l 806 1047 q 1099 999 968 1047 q 1325 865 1231 951 q 1470 661 1419 778 q 1521 408 1521 544 l 1521 408 q 1477 181 1521 276 q 1353 36 1433 86 q 1167 -14 1274 -14 l 1167 -14 q 1032 22 1092 -14 q 947 121 972 57 l 947 121 q 724 -14 876 -14 l 724 -14 q 560 30 631 -14 q 449 152 489 74 q 410 335 410 231 l 410 335 q 449 517 410 439 q 560 640 489 596 q 724 683 631 683 l 724 683 q 906 608 836 683 l 906 608 l 907 646 q 933 671 907 671 l 933 671 l 1115 671 q 1140 646 1140 671 l 1140 646 l 1140 308 q 1214 200 1140 200 l 1214 200 q 1276 253 1253 200 q 1299 408 1299 306 l 1299 408 q 1242 640 1299 542 q 1074 791 1185 738 q 806 844 964 844 l 806 844 q 542 787 660 844 q 355 613 424 729 q 286 318 286 496 l 286 318 q 355 45 286 151 q 546 -112 424 -61 q 828 -162 668 -162 l 828 -162 q 930 -158 883 -162 q 1019 -146 976 -154 l 1019 -146 q 1047 -168 1047 -142 l 1047 -168 l 1047 -314 q 1031 -340 1047 -336 l 1031 -340 q 916 -358 976 -351 q 778 -365 856 -365 z m 786 222 l 786 222 q 861 253 832 222 q 890 335 890 285 l 890 335 q 861 416 890 385 q 786 447 832 447 l 786 447 q 711 416 740 447 q 682 335 682 385 l 682 335 q 711 253 682 285 q 786 222 740 222 z "},"·":{"ha":494,"x_min":76,"x_max":418,"o":"m 247 322 l 247 322 q 126 367 175 322 q 76 485 76 413 l 76 485 q 126 601 76 557 q 247 646 175 646 l 247 646 q 369 601 319 646 q 418 485 418 557 l 418 485 q 369 367 418 413 q 247 322 319 322 z "},"A":{"ha":1089,"x_min":8,"x_max":1081,"o":"m 307 0 l 33 0 q 14 8 19 0 q 14 29 8 17 l 14 29 l 410 1000 q 439 1019 418 1019 l 439 1019 l 650 1019 q 679 1000 671 1019 l 679 1000 l 1075 29 q 1075 8 1081 17 q 1056 0 1069 0 l 1056 0 l 776 0 q 747 21 754 0 l 747 21 l 703 153 l 379 153 l 336 21 q 307 0 331 0 l 307 0 z m 540 642 l 458 392 l 624 392 l 540 642 z "},"B":{"ha":986,"x_min":89,"x_max":931,"o":"m 493 0 l 114 0 q 89 25 89 0 l 89 25 l 89 994 q 114 1019 89 1019 l 114 1019 l 513 1019 q 728 985 649 1019 q 844 891 808 951 q 879 750 879 831 l 879 750 q 842 624 879 679 q 733 539 806 569 l 733 539 q 881 449 832 513 q 931 304 931 386 l 931 304 q 827 78 931 156 q 493 0 724 0 l 493 0 z m 506 783 l 506 783 l 392 783 l 392 619 l 506 619 q 554 639 532 619 q 576 701 576 658 l 576 701 q 554 765 576 746 q 506 783 532 783 z m 517 413 l 517 413 l 392 413 l 392 236 l 517 236 q 581 256 554 236 q 608 324 608 276 l 608 324 q 581 392 608 371 q 517 413 554 413 z "},"C":{"ha":1135,"x_min":64,"x_max":1083,"o":"m 592 -19 l 592 -19 q 315 48 433 -19 q 130 235 196 115 q 64 510 64 354 l 64 510 q 104 724 64 626 q 216 892 144 821 q 383 1001 288 963 q 592 1039 479 1039 l 592 1039 q 880 963 765 1039 q 1051 746 994 888 l 1051 746 q 1036 714 1061 721 l 1036 714 l 772 644 q 740 657 753 639 l 740 657 q 677 715 714 697 q 590 732 640 732 l 590 732 q 448 673 506 732 q 390 510 390 614 l 390 510 q 449 347 390 406 q 592 288 507 288 l 592 288 q 697 310 650 288 q 767 396 743 333 l 767 396 q 797 414 775 419 l 797 414 l 1058 346 q 1078 318 1083 339 l 1078 318 q 978 144 1047 221 q 811 24 910 68 q 592 -19 713 -19 z "},"D":{"ha":1103,"x_min":89,"x_max":1039,"o":"m 521 0 l 114 0 q 89 25 89 0 l 89 25 l 89 994 q 114 1019 89 1019 l 114 1019 l 521 1019 q 901 892 763 1019 q 1039 510 1039 764 l 1039 510 q 901 129 1039 258 q 521 0 763 0 l 521 0 z m 493 731 l 493 731 l 399 731 l 399 289 l 493 289 q 660 340 600 289 q 719 510 719 392 l 719 510 q 660 679 719 628 q 493 731 600 731 z "},"E":{"ha":897,"x_min":89,"x_max":847,"o":"m 822 0 l 114 0 q 89 25 89 0 l 89 25 l 89 994 q 114 1019 89 1019 l 114 1019 l 806 1019 q 831 994 831 1019 l 831 994 l 831 783 q 806 758 831 758 l 806 758 l 400 758 l 400 643 l 750 643 q 775 618 775 643 l 775 618 l 775 418 q 750 393 775 393 l 750 393 l 400 393 l 400 261 l 822 261 q 847 236 847 261 l 847 236 l 847 25 q 822 0 847 0 l 822 0 z "},"F":{"ha":851,"x_min":89,"x_max":810,"o":"m 381 0 l 114 0 q 89 25 89 0 l 89 25 l 89 994 q 114 1019 89 1019 l 114 1019 l 785 1019 q 810 994 810 1019 l 810 994 l 810 769 q 785 744 810 744 l 785 744 l 406 744 l 406 604 l 715 604 q 740 579 740 604 l 740 579 l 740 354 q 715 329 740 329 l 715 329 l 406 329 l 406 25 q 381 0 406 0 l 381 0 z "},"G":{"ha":1154,"x_min":64,"x_max":1090,"o":"m 589 -19 l 589 -19 q 313 48 432 -19 q 129 235 194 115 q 64 510 64 354 l 64 510 q 104 724 64 626 q 216 892 144 821 q 385 1001 288 963 q 594 1039 482 1039 l 594 1039 q 888 967 767 1039 q 1061 758 1010 894 l 1061 758 q 1044 726 1069 733 l 1044 726 l 781 656 q 749 668 763 650 l 749 668 q 682 718 722 701 q 600 735 642 735 l 600 735 q 449 678 507 735 q 390 508 390 621 l 390 508 q 450 338 390 396 q 600 281 510 281 l 600 281 q 715 306 669 281 q 771 375 761 331 l 771 375 l 622 375 q 597 400 597 375 l 597 400 l 597 558 q 622 583 597 583 l 622 583 l 1065 583 q 1090 558 1090 583 l 1090 558 l 1090 436 q 1033 205 1090 308 q 863 41 975 101 q 589 -19 751 -19 z "},"H":{"ha":1111,"x_min":89,"x_max":1022,"o":"m 381 0 l 114 0 q 89 25 89 0 l 89 25 l 89 994 q 114 1019 89 1019 l 114 1019 l 381 1019 q 406 994 406 1019 l 406 994 l 406 668 l 706 668 l 706 994 q 731 1019 706 1019 l 731 1019 l 997 1019 q 1022 994 1022 1019 l 1022 994 l 1022 25 q 997 0 1022 0 l 997 0 l 731 0 q 706 25 706 0 l 706 25 l 706 371 l 406 371 l 406 25 q 381 0 406 0 l 381 0 z "},"I":{"ha":494,"x_min":89,"x_max":406,"o":"m 381 0 l 114 0 q 89 25 89 0 l 89 25 l 89 994 q 114 1019 89 1019 l 114 1019 l 381 1019 q 406 994 406 1019 l 406 994 l 406 25 q 381 0 406 0 l 381 0 z "},"J":{"ha":851,"x_min":1,"x_max":768,"o":"m 375 -19 l 375 -19 q 197 17 271 -19 q 76 119 122 54 q 8 267 29 185 l 8 267 q 26 297 1 290 l 26 297 l 256 360 q 288 343 278 365 l 288 343 q 315 303 299 318 q 364 288 332 288 l 364 288 q 433 322 414 288 q 451 411 451 357 l 451 411 l 451 722 l 218 722 q 193 747 193 722 l 193 747 l 193 994 q 218 1019 193 1019 l 218 1019 l 743 1019 q 768 994 768 1019 l 768 994 l 768 394 q 719 152 768 243 q 581 21 669 61 q 375 -19 492 -19 z "},"K":{"ha":1075,"x_min":89,"x_max":1067,"o":"m 381 0 l 114 0 q 89 25 89 0 l 89 25 l 89 994 q 114 1019 89 1019 l 114 1019 l 381 1019 q 406 994 406 1019 l 406 994 l 406 656 l 674 1004 q 704 1019 686 1019 l 704 1019 l 1004 1019 q 1024 1010 1019 1019 q 1018 989 1029 1001 l 1018 989 l 718 638 l 1051 29 q 1035 0 1067 0 l 1035 0 l 731 0 q 701 18 713 0 l 701 18 l 504 388 l 406 272 l 406 25 q 381 0 406 0 l 381 0 z "},"L":{"ha":878,"x_min":89,"x_max":842,"o":"m 817 0 l 114 0 q 89 25 89 0 l 89 25 l 89 994 q 114 1019 89 1019 l 114 1019 l 381 1019 q 406 994 406 1019 l 406 994 l 406 300 l 817 300 q 842 275 842 300 l 842 275 l 842 25 q 817 0 842 0 l 817 0 z "},"M":{"ha":1364,"x_min":89,"x_max":1275,"o":"m 367 0 l 114 0 q 89 25 89 0 l 89 25 l 89 994 q 114 1019 89 1019 l 114 1019 l 392 1019 q 421 1003 411 1019 l 421 1003 l 689 553 l 949 1003 q 978 1019 960 1019 l 978 1019 l 1250 1019 q 1275 994 1275 1019 l 1275 994 l 1275 25 q 1250 0 1275 0 l 1250 0 l 997 0 q 972 25 972 0 l 972 25 l 972 519 l 789 211 q 760 194 779 194 l 760 194 l 604 194 q 575 211 585 194 l 575 211 l 392 506 l 392 25 q 367 0 392 0 l 367 0 z "},"N":{"ha":1104,"x_min":89,"x_max":1015,"o":"m 367 0 l 114 0 q 89 25 89 0 l 89 25 l 89 994 q 114 1019 89 1019 l 114 1019 l 392 1019 q 421 1001 410 1019 l 421 1001 l 713 482 l 713 994 q 738 1019 713 1019 l 738 1019 l 990 1019 q 1015 994 1015 1019 l 1015 994 l 1015 25 q 990 0 1015 0 l 990 0 l 713 0 q 683 18 693 0 l 683 18 l 392 542 l 392 25 q 367 0 392 0 l 367 0 z "},"O":{"ha":1200,"x_min":64,"x_max":1136,"o":"m 600 -19 l 600 -19 q 387 19 485 -19 q 217 128 289 57 q 104 296 144 199 q 64 510 64 393 l 64 510 q 104 724 64 626 q 217 892 144 821 q 387 1001 289 963 q 600 1039 485 1039 l 600 1039 q 813 1001 715 1039 q 983 892 911 963 q 1096 724 1056 821 q 1136 510 1136 626 l 1136 510 q 1096 296 1136 393 q 983 128 1056 199 q 813 19 911 57 q 600 -19 715 -19 z m 600 288 l 600 288 q 750 349 690 288 q 810 510 810 410 l 810 510 q 750 671 810 610 q 600 732 690 732 l 600 732 q 450 671 510 732 q 390 510 390 610 l 390 510 q 450 349 390 410 q 600 288 510 288 z "},"P":{"ha":978,"x_min":89,"x_max":928,"o":"m 374 0 l 114 0 q 89 25 89 0 l 89 25 l 89 994 q 114 1019 89 1019 l 114 1019 l 479 1019 q 814 924 700 1019 q 928 632 928 828 l 928 632 q 814 341 928 438 q 479 244 700 244 l 479 244 l 399 244 l 399 25 q 374 0 399 0 l 374 0 z m 474 769 l 474 769 l 399 769 l 399 494 l 474 494 q 570 524 532 494 q 608 632 608 553 l 608 632 q 570 740 608 711 q 474 769 532 769 z "},"Q":{"ha":1219,"x_min":64,"x_max":1156,"o":"m 1131 0 l 629 0 q 321 63 447 0 q 129 242 194 126 q 64 510 64 357 l 64 510 q 131 783 64 664 q 317 971 197 903 q 599 1039 438 1039 l 599 1039 q 811 1002 717 1039 q 972 900 906 965 q 1072 751 1038 835 q 1107 572 1107 667 l 1107 572 q 1076 410 1107 486 q 988 285 1046 335 l 988 285 l 1131 285 q 1156 260 1156 285 l 1156 260 l 1156 25 q 1131 0 1156 0 l 1131 0 z m 588 288 l 588 288 q 730 350 675 288 q 785 510 785 413 l 785 510 q 730 670 785 608 q 588 732 675 732 l 588 732 q 445 670 500 732 q 390 510 390 608 l 390 510 q 445 350 390 413 q 588 288 500 288 z "},"R":{"ha":978,"x_min":89,"x_max":953,"o":"m 374 0 l 114 0 q 89 25 89 0 l 89 25 l 89 994 q 114 1019 89 1019 l 114 1019 l 479 1019 q 819 925 711 1019 q 928 644 928 831 l 928 644 q 793 343 928 433 l 793 343 l 946 29 q 947 8 953 17 q 926 0 942 0 l 926 0 l 635 0 q 606 19 614 0 l 606 19 l 504 269 q 479 269 492 269 l 479 269 l 399 269 l 399 25 q 374 0 399 0 l 374 0 z m 479 769 l 479 769 l 399 769 l 399 519 l 479 519 q 572 547 535 519 q 608 644 608 574 l 608 644 q 572 740 608 711 q 479 769 535 769 z "},"S":{"ha":851,"x_min":14,"x_max":828,"o":"m 426 -19 l 426 -19 q 174 51 281 -19 q 22 253 67 122 l 22 253 q 39 285 14 278 l 39 285 l 272 343 q 303 326 294 347 l 303 326 q 358 263 324 281 q 440 244 392 244 l 440 244 q 492 255 472 244 q 511 283 511 265 l 511 283 q 487 322 511 307 q 410 354 463 336 l 410 354 l 293 396 q 113 515 181 436 q 44 710 44 593 l 44 710 q 97 881 44 807 q 236 997 149 956 q 428 1039 324 1039 l 428 1039 q 656 978 556 1039 q 804 785 757 918 l 804 785 q 788 753 813 760 l 788 753 l 546 686 q 514 703 522 679 l 514 703 q 469 762 493 749 q 422 775 446 775 l 422 775 q 382 764 400 775 q 364 731 364 753 l 364 731 q 388 695 364 713 q 482 654 413 678 l 482 654 l 561 628 q 761 508 694 583 q 828 306 828 432 l 828 306 q 776 138 828 211 q 635 22 725 64 q 426 -19 544 -19 z "},"T":{"ha":989,"x_min":36,"x_max":953,"o":"m 628 0 l 361 0 q 336 25 336 0 l 336 25 l 336 722 l 61 722 q 36 747 36 722 l 36 747 l 36 994 q 61 1019 36 1019 l 61 1019 l 928 1019 q 953 994 953 1019 l 953 994 l 953 747 q 928 722 953 722 l 928 722 l 653 722 l 653 25 q 628 0 653 0 l 628 0 z "},"U":{"ha":1092,"x_min":83,"x_max":1008,"o":"m 546 -19 l 546 -19 q 381 3 463 -19 q 231 77 299 26 q 124 211 164 128 q 83 415 83 294 l 83 415 l 83 994 q 108 1019 83 1019 l 108 1019 l 375 1019 q 400 994 400 1019 l 400 994 l 400 482 q 439 336 400 385 q 546 288 478 288 l 546 288 q 653 336 614 288 q 692 482 692 385 l 692 482 l 692 994 q 717 1019 692 1019 l 717 1019 l 983 1019 q 1008 994 1008 1019 l 1008 994 l 1008 415 q 968 211 1008 294 q 860 77 928 128 q 711 3 793 26 q 546 -19 629 -19 z "},"V":{"ha":1083,"x_min":8,"x_max":1075,"o":"m 647 0 l 436 0 q 407 19 415 0 l 407 19 l 14 990 q 15 1011 8 1003 q 35 1019 21 1019 l 35 1019 l 343 1019 q 372 999 367 1019 l 372 999 l 546 461 l 715 999 q 744 1019 722 1019 l 744 1019 l 1049 1019 q 1069 1011 1063 1019 q 1069 990 1075 1003 l 1069 990 l 676 19 q 647 0 668 0 l 647 0 z "},"W":{"ha":1581,"x_min":8,"x_max":1572,"o":"m 611 0 l 401 0 q 374 19 381 0 l 374 19 l 14 990 q 14 1011 8 1003 q 33 1019 19 1019 l 33 1019 l 344 1019 q 374 999 368 1019 l 374 999 l 521 519 l 661 999 q 689 1019 667 1019 l 689 1019 l 899 1019 q 926 999 921 1019 l 926 999 l 1090 521 l 1214 999 q 1242 1019 1219 1019 l 1242 1019 l 1547 1019 q 1567 1011 1561 1019 q 1567 990 1572 1003 l 1567 990 l 1207 19 q 1179 0 1200 0 l 1179 0 l 969 0 q 942 21 947 0 l 942 21 l 790 543 l 639 21 q 611 0 633 0 l 611 0 z "},"X":{"ha":1032,"x_min":14,"x_max":1018,"o":"m 335 0 l 38 0 q 19 9 24 0 q 21 31 14 18 l 21 31 l 319 522 l 40 989 q 38 1010 33 1001 q 57 1019 43 1019 l 57 1019 l 364 1019 q 393 1001 382 1019 l 393 1001 l 524 761 l 653 1001 q 682 1019 664 1019 l 682 1019 l 975 1019 q 994 1010 990 1019 q 992 989 999 1001 l 992 989 l 711 524 l 1011 31 q 1014 9 1018 18 q 994 0 1010 0 l 994 0 l 683 0 q 654 18 665 0 l 654 18 l 510 281 l 364 18 q 335 0 353 0 l 335 0 z "},"Y":{"ha":1061,"x_min":8,"x_max":1053,"o":"m 664 0 l 397 0 q 372 25 372 0 l 372 25 l 372 363 l 15 989 q 14 1011 8 1003 q 33 1019 19 1019 l 33 1019 l 342 1019 q 371 1001 363 1019 l 371 1001 l 535 654 l 696 1001 q 725 1019 703 1019 l 725 1019 l 1028 1019 q 1048 1011 1043 1019 q 1046 989 1053 1003 l 1046 989 l 689 367 l 689 25 q 664 0 689 0 l 664 0 z "},"Z":{"ha":871,"x_min":15,"x_max":846,"o":"m 821 0 l 40 0 q 15 25 15 0 l 15 25 l 15 106 q 24 136 15 119 l 24 136 l 367 722 l 71 722 q 46 747 46 722 l 46 747 l 46 994 q 71 1019 46 1019 l 71 1019 l 810 1019 q 835 994 835 1019 l 835 994 l 835 914 q 826 883 835 900 l 826 883 l 482 297 l 821 297 q 846 272 846 297 l 846 272 l 846 25 q 821 0 846 0 l 821 0 z "},"a":{"ha":925,"x_min":36,"x_max":856,"o":"m 385 -14 l 385 -14 q 203 35 282 -14 q 80 171 124 83 q 36 376 36 258 l 36 376 q 80 582 36 494 q 203 718 124 669 q 385 767 282 767 l 385 767 q 593 676 514 767 l 593 676 l 594 728 q 621 753 594 753 l 621 753 l 831 753 q 856 728 856 753 l 856 728 l 856 25 q 831 0 856 0 l 831 0 l 621 0 q 594 25 594 0 l 594 25 l 593 76 q 385 -14 514 -14 z m 458 250 l 458 250 q 543 285 511 250 q 575 376 575 321 l 575 376 q 543 467 575 432 q 458 503 511 503 l 458 503 q 374 467 407 503 q 342 376 342 432 l 342 376 q 374 285 342 321 q 458 250 407 250 z "},"b":{"ha":925,"x_min":69,"x_max":889,"o":"m 540 -14 l 540 -14 q 332 76 411 -14 l 332 76 l 331 25 q 304 0 331 0 l 304 0 l 94 0 q 69 25 69 0 l 69 25 l 69 1017 q 94 1042 69 1042 l 94 1042 l 350 1042 q 375 1017 375 1042 l 375 1017 l 375 717 q 540 767 444 767 l 540 767 q 723 718 644 767 q 845 582 801 669 q 889 376 889 494 l 889 376 q 845 171 889 258 q 723 35 801 83 q 540 -14 644 -14 z m 467 250 l 467 250 q 551 285 519 250 q 583 376 583 321 l 583 376 q 551 467 583 432 q 467 503 519 503 l 467 503 q 383 467 415 503 q 350 376 350 432 l 350 376 q 383 285 350 321 q 467 250 415 250 z "},"c":{"ha":842,"x_min":36,"x_max":821,"o":"m 428 -14 l 428 -14 q 219 35 307 -14 q 84 173 132 85 q 36 376 36 261 l 36 376 q 84 581 36 493 q 219 717 132 668 q 428 767 307 767 l 428 767 q 587 742 513 767 q 717 664 661 717 q 799 525 772 611 l 799 525 q 782 493 807 500 l 782 493 l 567 435 q 535 450 546 428 l 535 450 q 494 491 518 479 q 444 503 471 503 l 444 503 q 370 467 396 503 q 344 376 344 432 l 344 376 q 370 285 344 321 q 444 250 396 250 l 444 250 q 494 263 469 250 q 533 307 519 275 l 533 307 q 565 324 544 329 l 565 324 l 796 265 q 813 233 821 258 l 813 233 q 726 95 785 150 q 591 13 668 40 q 428 -14 514 -14 z "},"d":{"ha":925,"x_min":36,"x_max":856,"o":"m 385 -14 l 385 -14 q 203 35 282 -14 q 80 171 124 83 q 36 376 36 258 l 36 376 q 80 582 36 494 q 203 718 124 669 q 385 767 282 767 l 385 767 q 550 715 481 767 l 550 715 l 550 1017 q 575 1042 550 1042 l 575 1042 l 831 1042 q 856 1017 856 1042 l 856 1017 l 856 25 q 831 0 856 0 l 831 0 l 621 0 q 594 25 594 0 l 594 25 l 593 76 q 385 -14 514 -14 z m 458 250 l 458 250 q 543 285 511 250 q 575 376 575 321 l 575 376 q 543 467 575 432 q 458 503 511 503 l 458 503 q 374 467 407 503 q 342 376 342 432 l 342 376 q 374 285 342 321 q 458 250 407 250 z "},"e":{"ha":863,"x_min":36,"x_max":835,"o":"m 439 -14 l 439 -14 q 228 35 318 -14 q 87 173 138 85 q 36 376 36 261 l 36 376 q 87 581 36 493 q 228 717 138 668 q 439 767 318 767 l 439 767 q 662 710 572 767 q 793 556 751 654 q 825 329 835 457 l 825 329 q 799 306 822 306 l 799 306 l 339 306 q 442 231 365 231 l 442 231 q 494 238 469 231 q 535 260 519 244 l 535 260 q 568 271 550 276 l 568 271 l 788 197 q 800 165 813 188 l 800 165 q 649 28 747 69 q 439 -14 550 -14 z m 436 542 l 436 542 q 333 444 350 542 l 333 444 l 538 444 q 436 542 519 542 z "},"f":{"ha":625,"x_min":14,"x_max":738,"o":"m 394 0 l 139 0 q 114 25 114 0 l 114 25 l 114 496 l 39 496 q 14 521 14 496 l 14 521 l 14 721 q 39 746 14 746 l 39 746 l 115 746 q 154 906 119 836 q 257 1016 189 976 q 429 1056 325 1056 l 429 1056 q 598 1019 522 1056 q 725 899 674 982 l 725 899 q 714 865 738 878 l 714 865 l 549 786 q 514 792 529 778 l 514 792 q 471 806 496 806 l 471 806 q 413 746 421 806 l 413 746 l 567 746 q 592 721 592 746 l 592 721 l 592 521 q 567 496 592 496 l 567 496 l 419 496 l 419 25 q 394 0 419 0 l 394 0 z "},"g":{"ha":925,"x_min":36,"x_max":856,"o":"m 428 -317 l 428 -317 q 188 -256 286 -317 q 54 -94 90 -194 l 54 -94 q 71 -64 46 -71 l 71 -64 l 265 -10 q 299 -21 283 -4 l 299 -21 q 347 -58 318 -43 q 419 -74 375 -74 l 419 -74 q 517 -40 483 -74 q 550 44 550 -7 l 550 44 l 550 60 q 385 8 481 8 l 385 8 q 203 57 282 8 q 80 191 124 106 q 36 388 36 276 l 36 388 q 80 584 36 499 q 203 718 124 669 q 385 767 282 767 l 385 767 q 593 676 514 767 l 593 676 l 594 728 q 621 753 594 753 l 621 753 l 831 753 q 856 728 856 753 l 856 728 l 856 97 q 797 -145 856 -54 q 642 -276 739 -236 q 428 -317 544 -317 z m 458 250 l 458 250 q 542 285 510 250 q 575 376 575 321 l 575 376 q 542 467 575 432 q 458 503 510 503 l 458 503 q 374 467 407 503 q 342 376 342 432 l 342 376 q 374 285 342 321 q 458 250 407 250 z "},"h":{"ha":910,"x_min":69,"x_max":846,"o":"m 350 0 l 94 0 q 69 25 69 0 l 69 25 l 69 1017 q 94 1042 69 1042 l 94 1042 l 350 1042 q 375 1017 375 1042 l 375 1017 l 375 690 q 571 767 446 767 l 571 767 q 774 693 701 767 q 846 490 846 619 l 846 490 l 846 25 q 821 0 846 0 l 821 0 l 565 0 q 540 25 540 0 l 540 25 l 540 382 q 522 476 540 450 q 461 503 503 503 l 461 503 q 375 372 375 503 l 375 372 l 375 25 q 350 0 375 0 l 350 0 z "},"i":{"ha":444,"x_min":60,"x_max":385,"o":"m 222 824 l 222 824 q 107 867 154 824 q 60 978 60 910 l 60 978 q 107 1090 60 1047 q 222 1132 154 1132 l 222 1132 q 338 1090 292 1132 q 385 978 385 1047 l 385 978 q 338 867 385 910 q 222 824 292 824 z m 350 0 l 94 0 q 69 25 69 0 l 69 25 l 69 728 q 94 753 69 753 l 94 753 l 350 753 q 375 728 375 753 l 375 728 l 375 25 q 350 0 375 0 l 350 0 z "},"j":{"ha":444,"x_min":-264,"x_max":385,"o":"m 222 824 l 222 824 q 107 867 154 824 q 60 978 60 910 l 60 978 q 107 1090 60 1047 q 222 1132 154 1132 l 222 1132 q 338 1090 292 1132 q 385 978 385 1047 l 385 978 q 338 867 385 910 q 222 824 292 824 z m 40 -318 l 40 -318 q -83 -294 -22 -317 q -189 -224 -143 -271 q -256 -108 -235 -178 l -256 -108 q -239 -78 -264 -85 l -239 -78 l -46 -25 q -15 -40 -25 -19 l -15 -40 q 25 -68 -1 -68 l 25 -68 q 57 -52 44 -68 q 69 3 69 -36 l 69 3 l 69 728 q 94 753 69 753 l 94 753 l 350 753 q 375 728 375 753 l 375 728 l 375 38 q 342 -155 375 -74 q 235 -278 308 -236 q 40 -318 161 -321 z "},"k":{"ha":928,"x_min":69,"x_max":904,"o":"m 350 0 l 94 0 q 69 25 69 0 l 69 25 l 69 1017 q 94 1042 69 1042 l 94 1042 l 350 1042 q 375 1017 375 1042 l 375 1017 l 375 539 l 536 738 q 567 753 547 753 l 567 753 l 854 753 q 874 743 869 753 q 867 722 878 733 l 867 722 l 663 501 l 897 29 q 899 8 904 17 q 879 0 894 0 l 879 0 l 600 0 q 571 18 578 0 l 571 18 l 451 275 l 375 192 l 375 25 q 350 0 375 0 l 350 0 z "},"l":{"ha":444,"x_min":69,"x_max":375,"o":"m 350 0 l 94 0 q 69 25 69 0 l 69 25 l 69 1017 q 94 1042 69 1042 l 94 1042 l 350 1042 q 375 1017 375 1042 l 375 1017 l 375 25 q 350 0 375 0 l 350 0 z "},"m":{"ha":1369,"x_min":69,"x_max":1306,"o":"m 350 0 l 94 0 q 69 25 69 0 l 69 25 l 69 728 q 94 753 69 753 l 94 753 l 306 753 q 331 729 329 753 l 331 729 l 335 669 q 558 767 411 767 l 558 767 q 790 667 717 767 l 790 667 q 1024 767 868 767 l 1024 767 q 1233 693 1160 767 q 1306 490 1306 619 l 1306 490 l 1306 25 q 1281 0 1306 0 l 1281 0 l 1025 0 q 1000 25 1000 0 l 1000 25 l 1000 382 q 981 476 1000 450 q 921 503 963 503 l 921 503 q 858 469 876 503 q 840 372 840 436 l 840 372 l 840 25 q 815 0 840 0 l 815 0 l 560 0 q 535 25 535 0 l 535 25 l 535 382 q 516 476 535 450 q 456 503 497 503 l 456 503 q 393 469 411 503 q 375 372 375 436 l 375 372 l 375 25 q 350 0 375 0 l 350 0 z "},"n":{"ha":910,"x_min":69,"x_max":846,"o":"m 350 0 l 94 0 q 69 25 69 0 l 69 25 l 69 728 q 94 753 69 753 l 94 753 l 304 753 q 331 728 329 753 l 331 728 l 333 675 q 564 767 415 767 l 564 767 q 773 693 700 767 q 846 490 846 619 l 846 490 l 846 25 q 821 0 846 0 l 821 0 l 565 0 q 540 25 540 0 l 540 25 l 540 382 q 522 476 540 450 q 461 503 503 503 l 461 503 q 375 372 375 503 l 375 372 l 375 25 q 350 0 375 0 l 350 0 z "},"o":{"ha":917,"x_min":36,"x_max":881,"o":"m 458 -14 l 458 -14 q 235 35 329 -14 q 88 173 140 85 q 36 376 36 261 l 36 376 q 88 581 36 493 q 235 717 140 668 q 458 767 329 767 l 458 767 q 682 717 588 767 q 828 581 776 668 q 881 376 881 493 l 881 376 q 828 173 881 261 q 682 35 776 85 q 458 -14 588 -14 z m 458 250 l 458 250 q 543 285 511 250 q 575 376 575 321 l 575 376 q 543 467 575 432 q 458 503 511 503 l 458 503 q 374 467 407 503 q 342 376 342 432 l 342 376 q 374 285 342 321 q 458 250 407 250 z "},"p":{"ha":925,"x_min":69,"x_max":889,"o":"m 350 -303 l 94 -303 q 69 -278 69 -303 l 69 -278 l 69 728 q 94 753 69 753 l 94 753 l 304 753 q 331 728 331 753 l 331 728 l 332 676 q 540 767 411 767 l 540 767 q 723 718 644 767 q 845 582 801 669 q 889 376 889 494 l 889 376 q 845 171 889 258 q 723 35 801 83 q 540 -14 644 -14 l 540 -14 q 375 36 444 -14 l 375 36 l 375 -278 q 350 -303 375 -303 l 350 -303 z m 467 250 l 467 250 q 551 285 519 250 q 583 376 583 321 l 583 376 q 551 467 583 432 q 467 503 519 503 l 467 503 q 383 467 415 503 q 350 376 350 432 l 350 376 q 383 285 350 321 q 467 250 415 250 z "},"q":{"ha":925,"x_min":36,"x_max":856,"o":"m 831 -303 l 575 -303 q 550 -278 550 -303 l 550 -278 l 550 36 q 385 -14 481 -14 l 385 -14 q 203 35 282 -14 q 80 171 124 83 q 36 376 36 258 l 36 376 q 80 582 36 494 q 203 718 124 669 q 385 767 282 767 l 385 767 q 593 676 514 767 l 593 676 l 594 728 q 621 753 594 753 l 621 753 l 831 753 q 856 728 856 753 l 856 728 l 856 -278 q 831 -303 856 -303 l 831 -303 z m 458 250 l 458 250 q 543 285 511 250 q 575 376 575 321 l 575 376 q 543 467 575 432 q 458 503 511 503 l 458 503 q 374 467 407 503 q 342 376 342 432 l 342 376 q 374 285 342 321 q 458 250 407 250 z "},"r":{"ha":640,"x_min":69,"x_max":626,"o":"m 350 0 l 94 0 q 69 25 69 0 l 69 25 l 69 728 q 94 753 69 753 l 94 753 l 304 753 q 331 728 329 753 l 331 728 l 333 665 q 427 740 372 718 q 549 763 482 763 l 549 763 q 606 754 579 763 l 606 754 q 626 726 626 749 l 626 726 l 626 499 q 599 476 626 469 l 599 476 q 525 485 565 485 l 525 485 q 462 472 497 485 q 401 431 426 460 q 375 350 375 401 l 375 350 l 375 25 q 350 0 375 0 l 350 0 z "},"s":{"ha":722,"x_min":7,"x_max":706,"o":"m 361 -14 l 361 -14 q 140 36 229 -14 q 15 179 51 86 l 15 179 q 33 208 7 204 l 33 208 l 232 243 q 264 229 251 247 l 264 229 q 350 186 296 186 l 350 186 q 394 214 394 186 l 394 214 q 385 234 394 225 q 339 253 376 243 l 339 253 l 317 258 q 153 324 214 283 q 68 417 93 365 q 43 524 43 468 l 43 524 q 85 650 43 596 q 200 735 126 704 q 369 767 274 767 l 369 767 q 577 721 497 767 q 692 578 657 675 l 692 578 q 674 547 700 551 l 674 547 l 485 514 q 454 529 465 510 l 454 529 q 389 567 432 567 l 389 567 q 353 540 353 567 l 353 540 q 410 497 353 513 l 410 497 l 432 492 q 596 431 536 467 q 681 348 656 396 q 706 233 706 300 l 706 233 q 661 103 706 158 q 539 17 617 47 q 361 -14 461 -14 z "},"t":{"ha":678,"x_min":3,"x_max":690,"o":"m 390 -14 l 390 -14 q 167 79 233 -14 q 101 340 101 172 l 101 340 l 101 496 l 28 496 q 3 521 3 496 l 3 521 l 3 721 q 28 746 3 746 l 28 746 l 101 746 l 101 906 q 126 931 101 931 l 126 931 l 382 931 q 407 906 407 931 l 407 906 l 407 746 l 535 746 q 560 721 560 746 l 560 721 l 560 521 q 535 496 560 496 l 535 496 l 407 496 l 407 307 q 442 236 407 236 l 442 236 q 456 240 450 236 q 472 256 463 243 l 472 256 q 501 258 482 267 l 501 258 l 667 189 q 678 151 690 179 l 678 151 q 604 56 651 93 q 501 3 557 19 q 390 -14 444 -14 z "},"u":{"ha":906,"x_min":64,"x_max":836,"o":"m 344 -14 l 344 -14 q 137 60 210 -14 q 64 263 64 133 l 64 263 l 64 728 q 89 753 64 753 l 89 753 l 344 753 q 369 728 369 753 l 369 728 l 369 371 q 388 276 369 303 q 447 250 406 250 l 447 250 q 511 283 492 250 q 531 381 531 317 l 531 381 l 531 728 q 556 753 531 753 l 556 753 l 811 753 q 836 728 836 753 l 836 728 l 836 25 q 811 0 836 0 l 811 0 l 601 0 q 575 25 578 0 l 575 25 l 572 79 q 344 -14 494 -14 z "},"v":{"ha":886,"x_min":11,"x_max":875,"o":"m 525 0 l 361 0 q 332 19 340 0 l 332 19 l 17 724 q 17 744 11 736 q 36 753 22 753 l 36 753 l 297 753 q 325 733 318 753 l 325 733 l 450 392 l 572 733 q 600 753 579 753 l 600 753 l 850 753 q 869 744 864 753 q 869 724 875 736 l 869 724 l 554 19 q 525 0 546 0 l 525 0 z "},"w":{"ha":1253,"x_min":13,"x_max":1240,"o":"m 465 0 l 301 0 q 274 19 281 0 l 274 19 l 17 724 q 17 744 13 736 q 36 753 22 753 l 36 753 l 297 753 q 326 732 321 753 l 326 732 l 418 429 l 535 736 q 563 756 543 756 l 563 756 l 726 756 q 754 735 749 756 l 754 735 l 861 422 l 963 732 q 992 753 969 753 l 992 753 l 1217 753 q 1235 744 1231 753 q 1236 724 1240 736 l 1236 724 l 979 19 q 951 0 972 0 l 951 0 l 788 0 q 760 21 767 0 l 760 21 l 633 388 l 493 19 q 465 0 485 0 l 465 0 z "},"x":{"ha":868,"x_min":11,"x_max":857,"o":"m 293 0 l 35 0 q 16 9 21 0 q 19 31 11 18 l 19 31 l 258 381 l 25 722 q 22 744 17 735 q 40 753 26 753 l 40 753 l 310 753 q 340 736 331 753 l 340 736 l 439 578 l 539 736 q 569 753 549 753 l 569 753 l 828 753 q 847 744 843 753 q 843 722 851 735 l 843 722 l 608 381 l 849 31 q 853 9 857 18 q 833 0 849 0 l 833 0 l 564 0 q 535 17 544 0 l 535 17 l 432 188 l 324 17 q 293 0 314 0 l 293 0 z "},"y":{"ha":906,"x_min":11,"x_max":894,"o":"m 447 -303 l 200 -303 q 181 -294 186 -303 q 181 -274 175 -286 l 181 -274 l 314 60 l 17 724 q 17 744 11 736 q 36 753 22 753 l 36 753 l 299 753 q 326 733 318 753 l 326 733 l 461 382 l 601 733 q 631 753 610 753 l 631 753 l 869 753 q 889 744 883 753 q 889 724 894 736 l 889 724 l 476 -283 q 447 -303 468 -303 l 447 -303 z "},"z":{"ha":729,"x_min":22,"x_max":707,"o":"m 682 0 l 47 0 q 22 25 22 0 l 22 25 l 22 85 q 31 115 22 101 l 31 115 l 275 503 l 54 503 q 29 528 29 503 l 29 528 l 29 728 q 54 753 29 753 l 54 753 l 676 753 q 701 728 701 753 l 701 728 l 701 668 q 693 638 701 653 l 693 638 l 449 250 l 682 250 q 707 225 707 250 l 707 225 l 707 25 q 682 0 707 0 l 682 0 z "},"ﬁ":{"ha":1025,"x_min":14,"x_max":965,"o":"m 803 817 l 803 817 q 688 860 735 817 q 640 971 640 903 l 640 971 q 688 1083 640 1040 q 803 1125 735 1125 l 803 1125 q 919 1083 872 1125 q 965 971 965 1040 l 965 971 q 919 860 965 903 q 803 817 872 817 z m 394 0 l 139 0 q 114 25 114 0 l 114 25 l 114 496 l 39 496 q 14 521 14 496 l 14 521 l 14 721 q 39 746 14 746 l 39 746 l 115 746 q 155 906 119 836 q 257 1016 190 976 q 424 1056 324 1056 l 424 1056 q 499 1050 463 1056 q 569 1033 535 1044 l 569 1033 q 590 1004 590 1028 l 590 1004 l 590 817 q 561 797 590 789 l 561 797 q 501 806 535 806 l 501 806 q 422 746 436 806 l 422 746 l 931 746 q 956 721 956 746 l 956 721 l 956 25 q 931 0 956 0 l 931 0 l 675 0 q 650 25 650 0 l 650 25 l 650 496 l 419 496 l 419 25 q 394 0 419 0 l 394 0 z "},"ﬂ":{"ha":1025,"x_min":14,"x_max":956,"o":"m 394 0 l 139 0 q 114 25 114 0 l 114 25 l 114 496 l 39 496 q 14 521 14 496 l 14 521 l 14 721 q 39 746 14 746 l 39 746 l 115 746 q 155 906 119 836 q 257 1016 190 976 q 424 1056 324 1056 l 424 1056 q 499 1050 463 1056 q 569 1033 535 1044 l 569 1033 q 590 1004 590 1028 l 590 1004 l 590 817 q 561 797 590 789 l 561 797 q 501 806 535 806 l 501 806 q 422 746 436 806 l 422 746 l 539 746 q 564 721 564 746 l 564 721 l 564 521 q 539 496 564 496 l 539 496 l 419 496 l 419 25 q 394 0 419 0 l 394 0 z m 931 0 l 675 0 q 650 25 650 0 l 650 25 l 650 1017 q 675 1042 650 1042 l 675 1042 l 931 1042 q 956 1017 956 1042 l 956 1017 l 956 25 q 931 0 956 0 l 931 0 z "},"ﬃ":{"ha":1547,"x_min":14,"x_max":1488,"o":"m 1325 817 l 1325 817 q 1210 860 1257 817 q 1163 971 1163 903 l 1163 971 q 1210 1083 1163 1040 q 1325 1125 1257 1125 l 1325 1125 q 1441 1083 1394 1125 q 1488 971 1488 1040 l 1488 971 q 1441 860 1488 903 q 1325 817 1394 817 z m 394 0 l 139 0 q 114 25 114 0 l 114 25 l 114 496 l 39 496 q 14 521 14 496 l 14 521 l 14 721 q 39 746 14 746 l 39 746 l 115 746 q 158 903 122 833 q 260 1015 193 974 q 429 1056 328 1056 l 429 1056 q 543 1043 486 1056 q 651 1001 600 1031 l 651 1001 q 663 968 671 990 l 663 968 l 599 803 q 565 790 590 781 l 565 790 q 489 806 531 806 l 489 806 q 413 746 421 806 l 413 746 l 651 746 q 691 906 656 836 q 793 1016 726 976 q 960 1056 860 1056 l 960 1056 q 1035 1050 999 1056 q 1106 1033 1071 1044 l 1106 1033 q 1126 1004 1126 1028 l 1126 1004 l 1126 817 q 1097 797 1126 789 l 1097 797 q 1038 806 1071 806 l 1038 806 q 958 746 972 806 l 958 746 l 1453 746 q 1478 721 1478 746 l 1478 721 l 1478 25 q 1453 0 1478 0 l 1453 0 l 1197 0 q 1172 25 1172 0 l 1172 25 l 1172 496 l 956 496 l 956 25 q 931 0 956 0 l 931 0 l 675 0 q 650 25 650 0 l 650 25 l 650 496 l 419 496 l 419 25 q 394 0 419 0 l 394 0 z "},"ﬄ":{"ha":1561,"x_min":14,"x_max":1492,"o":"m 394 0 l 139 0 q 114 25 114 0 l 114 25 l 114 496 l 39 496 q 14 521 14 496 l 14 521 l 14 721 q 39 746 14 746 l 39 746 l 115 746 q 158 903 122 833 q 260 1015 193 974 q 429 1056 328 1056 l 429 1056 q 543 1043 486 1056 q 651 1001 600 1031 l 651 1001 q 663 968 671 990 l 663 968 l 599 803 q 565 790 590 781 l 565 790 q 489 806 531 806 l 489 806 q 413 746 421 806 l 413 746 l 651 746 q 691 906 656 836 q 793 1016 726 976 q 960 1056 860 1056 l 960 1056 q 1035 1050 999 1056 q 1106 1033 1071 1044 l 1106 1033 q 1126 1004 1126 1028 l 1126 1004 l 1126 817 q 1097 797 1126 789 l 1097 797 q 1038 806 1071 806 l 1038 806 q 958 746 972 806 l 958 746 l 1075 746 q 1100 721 1100 746 l 1100 721 l 1100 521 q 1075 496 1100 496 l 1075 496 l 956 496 l 956 25 q 931 0 956 0 l 931 0 l 675 0 q 650 25 650 0 l 650 25 l 650 496 l 419 496 l 419 25 q 394 0 419 0 l 394 0 z m 1467 0 l 1211 0 q 1186 25 1186 0 l 1186 25 l 1186 1017 q 1211 1042 1186 1042 l 1211 1042 l 1467 1042 q 1492 1017 1492 1042 l 1492 1017 l 1492 25 q 1467 0 1492 0 l 1467 0 z "},"ﬀ":{"ha":1161,"x_min":14,"x_max":1274,"o":"m 394 0 l 139 0 q 114 25 114 0 l 114 25 l 114 496 l 39 496 q 14 521 14 496 l 14 521 l 14 721 q 39 746 14 746 l 39 746 l 115 746 q 158 903 122 833 q 260 1015 193 974 q 429 1056 328 1056 l 429 1056 q 543 1043 486 1056 q 651 1001 600 1031 l 651 1001 q 663 968 671 990 l 663 968 l 599 803 q 565 790 590 781 l 565 790 q 489 806 531 806 l 489 806 q 413 746 421 806 l 413 746 l 651 746 q 694 903 658 833 q 797 1015 729 974 q 965 1056 864 1056 l 965 1056 q 1134 1019 1058 1056 q 1261 899 1210 982 l 1261 899 q 1250 865 1274 878 l 1250 865 l 1085 786 q 1050 792 1065 778 l 1050 792 q 1007 806 1032 806 l 1007 806 q 949 746 957 806 l 949 746 l 1103 746 q 1128 721 1128 746 l 1128 721 l 1128 521 q 1103 496 1128 496 l 1103 496 l 956 496 l 956 25 q 931 0 956 0 l 931 0 l 675 0 q 650 25 650 0 l 650 25 l 650 496 l 419 496 l 419 25 q 394 0 419 0 l 394 0 z "},"©":{"ha":1189,"x_min":64,"x_max":1125,"o":"m 594 -19 l 594 -19 q 384 19 481 -19 q 215 128 288 57 q 103 296 143 199 q 64 510 64 393 l 64 510 q 103 724 64 626 q 215 892 143 821 q 384 1001 288 963 q 594 1039 481 1039 l 594 1039 q 805 1001 708 1039 q 974 892 901 963 q 1085 724 1046 821 q 1125 510 1125 626 l 1125 510 q 1085 296 1125 393 q 974 128 1046 199 q 805 19 901 57 q 594 -19 708 -19 z m 594 119 l 594 119 q 793 167 706 119 q 931 301 881 214 q 981 510 981 389 l 981 510 q 931 719 981 632 q 793 853 881 806 q 594 900 706 900 l 594 900 q 396 853 483 900 q 258 719 308 806 q 208 510 208 632 l 208 510 q 258 301 208 389 q 396 167 308 214 q 594 119 483 119 z m 594 224 l 594 224 q 442 260 507 224 q 343 360 378 296 q 308 510 308 425 l 308 510 q 343 659 308 594 q 442 760 378 724 q 594 796 507 796 l 594 796 q 759 756 685 796 q 864 625 833 715 l 864 625 q 846 593 872 600 l 846 593 l 703 554 q 669 569 685 549 l 669 569 q 642 595 658 588 q 607 603 625 603 l 607 603 q 552 576 571 603 q 533 510 533 550 l 533 510 q 552 443 533 469 q 607 417 571 417 l 607 417 q 640 424 624 417 q 669 453 657 432 l 669 453 q 700 469 682 475 l 700 469 l 857 431 q 874 399 883 424 l 874 399 q 765 267 842 310 q 594 224 688 224 z "},"®":{"ha":856,"x_min":64,"x_max":792,"o":"m 428 319 l 428 319 q 240 366 322 319 q 110 495 157 413 q 64 686 64 578 l 64 686 q 110 877 64 794 q 240 1006 157 960 q 428 1053 322 1053 l 428 1053 q 617 1006 535 1053 q 745 877 699 960 q 792 686 792 794 l 792 686 q 745 495 792 578 q 617 366 699 413 q 428 319 535 319 z m 428 410 l 428 410 q 628 487 556 410 q 700 686 700 564 l 700 686 q 628 885 700 808 q 428 963 556 963 l 428 963 q 228 885 300 963 q 156 686 156 808 l 156 686 q 228 487 156 564 q 428 410 300 410 z m 374 528 l 307 528 q 299 536 299 528 l 299 536 l 299 860 q 307 868 299 868 l 307 868 l 431 868 q 540 836 507 868 q 572 757 572 804 l 572 757 q 557 699 572 726 q 507 657 542 672 l 507 657 l 579 538 q 574 528 585 528 l 574 528 l 496 528 q 486 533 490 528 l 486 533 l 424 643 l 382 643 l 382 536 q 374 528 382 528 l 374 528 z m 429 800 l 429 800 l 382 800 l 382 711 l 429 711 q 488 757 488 711 l 488 757 q 474 788 488 775 q 429 800 461 800 z "},"™":{"ha":1417,"x_min":24,"x_max":1383,"o":"m 844 458 l 676 458 q 651 483 651 458 l 651 483 l 651 994 q 676 1019 651 1019 l 676 1019 l 849 1019 q 879 1003 869 1019 l 879 1003 l 1019 788 l 1160 1003 q 1190 1019 1171 1019 l 1190 1019 l 1358 1019 q 1383 994 1383 1019 l 1383 994 l 1383 483 q 1358 458 1383 458 l 1358 458 l 1190 458 q 1165 483 1165 458 l 1165 483 l 1165 718 l 1074 582 q 1043 565 1064 565 l 1043 565 l 978 565 q 947 581 957 565 l 947 581 l 869 693 l 869 483 q 844 458 869 458 l 844 458 z m 417 458 l 217 458 q 192 483 192 458 l 192 483 l 192 789 l 49 789 q 24 814 24 789 l 24 814 l 24 994 q 49 1019 24 1019 l 49 1019 l 585 1019 q 610 994 610 1019 l 610 994 l 610 814 q 585 789 610 789 l 585 789 l 442 789 l 442 483 q 417 458 442 458 l 417 458 z "},"📷":{"ha":1389,"x_min":250,"x_max":1138,"o":"m 1079 81 l 307 81 q 267 98 285 81 q 250 139 250 115 l 250 139 l 250 775 q 267 817 250 800 q 307 835 285 835 l 307 835 l 479 835 l 524 899 q 574 924 540 924 l 574 924 l 813 924 q 858 900 842 924 l 858 900 l 908 835 l 1079 835 q 1120 817 1103 835 q 1138 775 1138 800 l 1138 775 l 1138 139 q 1120 98 1138 115 q 1079 81 1103 81 l 1079 81 z m 693 267 l 693 267 q 790 292 746 267 q 859 361 833 318 q 885 457 885 404 l 885 457 q 859 555 885 511 q 790 624 833 599 q 693 650 746 650 l 693 650 q 598 624 642 650 q 528 555 554 599 q 503 457 503 511 l 503 457 q 528 361 503 404 q 598 292 554 318 q 693 267 642 267 z m 693 317 l 693 317 q 594 358 636 317 q 551 457 551 400 l 551 457 q 594 558 551 517 q 693 599 636 599 l 693 599 q 793 558 751 599 q 835 457 835 517 l 835 457 q 793 358 835 400 q 693 317 751 317 z "},"💬":{"ha":1389,"x_min":260,"x_max":1128,"o":"m 503 61 l 485 22 l 453 54 q 370 155 415 92 q 292 300 325 218 q 260 475 260 382 l 260 475 q 314 709 260 610 q 467 863 368 808 q 700 918 565 918 l 700 918 q 926 872 831 918 q 1075 740 1022 825 q 1128 539 1128 656 l 1128 539 q 1099 390 1128 460 q 1017 266 1069 319 q 897 183 965 213 q 749 153 828 153 l 749 153 l 632 153 q 550 124 582 153 q 503 61 518 96 l 503 61 z m 513 467 l 513 467 q 545 481 532 467 q 558 513 558 494 l 558 513 q 545 547 558 533 q 513 560 532 560 l 513 560 q 481 547 494 560 q 468 513 468 533 l 468 513 q 481 481 468 494 q 513 467 494 467 z m 690 467 l 690 467 q 722 481 708 467 q 736 513 736 494 l 736 513 q 722 547 736 533 q 690 560 708 560 l 690 560 q 659 547 672 560 q 646 513 646 533 l 646 513 q 659 481 646 494 q 690 467 672 467 z m 868 467 l 868 467 q 899 481 886 467 q 913 513 913 494 l 913 513 q 899 547 913 533 q 868 560 886 560 l 868 560 q 835 547 847 560 q 822 513 822 533 l 822 513 q 835 481 822 494 q 868 467 847 467 z "},"✉":{"ha":1389,"x_min":249,"x_max":1138,"o":"m 1031 106 l 358 106 q 281 137 313 106 q 249 214 249 168 l 249 214 l 249 743 q 281 822 249 789 q 358 854 313 854 l 358 854 l 1031 854 q 1106 822 1075 854 q 1138 743 1138 789 l 1138 743 l 1138 214 q 1106 138 1138 169 q 1031 106 1075 106 l 1031 106 z m 367 694 l 693 419 l 1019 694 q 1031 717 1031 703 l 1031 717 q 1025 733 1031 724 q 1006 742 1019 742 l 1006 742 q 988 735 996 742 l 988 735 l 693 486 l 399 735 q 381 742 389 742 l 381 742 q 361 733 367 742 q 356 717 356 724 l 356 717 q 367 694 356 703 l 367 694 z "},"🕓":{"ha":1389,"x_min":228,"x_max":1160,"o":"m 693 13 l 693 13 q 513 49 597 13 q 365 149 429 85 q 264 297 300 213 q 228 476 228 381 l 228 476 q 264 656 228 572 q 365 804 300 740 q 513 904 429 868 q 693 940 597 940 l 693 940 q 874 904 789 940 q 1023 803 958 868 q 1124 655 1088 739 q 1160 475 1160 571 l 1160 475 q 1124 296 1160 379 q 1023 149 1088 213 q 874 49 958 85 q 693 13 789 13 z m 668 461 l 842 361 l 865 406 l 718 490 l 718 731 l 668 731 l 668 461 z "},"🎵":{"ha":1389,"x_min":275,"x_max":1025,"o":"m 404 49 l 404 49 q 314 88 353 49 q 275 179 275 126 l 275 179 q 313 274 275 235 q 404 314 351 314 l 404 314 q 472 296 436 314 l 472 296 l 472 744 q 485 781 472 764 q 517 803 499 797 l 517 803 l 951 918 q 1001 907 978 925 q 1025 863 1025 889 l 1025 863 l 1025 313 q 986 217 1025 257 q 890 178 947 178 l 890 178 q 799 215 839 178 q 760 313 760 253 l 760 313 q 799 404 760 365 q 890 443 839 443 l 890 443 q 960 425 925 443 l 960 425 l 960 724 l 540 611 l 540 179 q 500 88 540 128 q 404 49 460 49 z "},"📞":{"ha":1389,"x_min":236,"x_max":1154,"o":"m 940 19 l 940 19 q 720 83 839 19 q 483 265 601 147 l 483 265 q 351 426 407 343 q 266 590 296 510 q 236 732 236 669 l 236 732 q 272 839 236 801 l 272 839 l 342 910 q 375 931 357 925 q 411 938 393 938 l 411 938 q 454 929 433 938 q 490 903 475 921 l 490 903 l 597 781 q 611 744 611 764 l 611 744 q 592 704 611 724 l 592 704 l 499 608 q 519 559 500 592 q 569 489 539 526 q 633 417 599 451 l 633 417 q 706 352 668 382 q 775 303 743 322 q 824 283 807 285 l 824 283 l 918 378 q 961 396 936 396 l 961 396 q 1000 381 982 396 l 1000 381 l 1121 272 q 1154 197 1154 243 l 1154 197 q 1126 128 1154 156 l 1126 128 l 1057 57 q 1008 29 1039 39 q 940 19 976 19 z "},"🔍":{"ha":1389,"x_min":240,"x_max":1149,"o":"m 1149 88 l 1079 18 l 825 271 q 606 196 732 196 l 606 196 q 465 224 531 196 q 348 303 399 253 q 269 420 297 354 q 240 561 240 486 l 240 561 q 269 703 240 636 q 347 819 297 769 q 464 898 397 869 q 606 926 531 926 l 606 926 q 790 877 707 926 q 923 745 874 828 q 972 561 972 663 l 972 561 q 896 342 972 438 l 896 342 l 1149 88 z m 606 296 l 606 296 q 739 331 679 296 q 834 427 799 367 q 869 561 869 488 l 869 561 q 834 694 869 635 q 739 790 799 754 q 606 825 679 825 l 606 825 q 473 790 533 825 q 377 694 413 754 q 342 561 342 635 l 342 561 q 377 428 342 489 q 473 332 413 368 q 606 296 533 296 z "},"🛍":{"ha":1389,"x_min":314,"x_max":1074,"o":"m 1074 249 l 314 249 l 314 760 q 331 801 314 783 q 371 818 349 818 l 371 818 l 513 818 q 537 910 513 869 q 602 976 561 951 q 693 1000 643 1000 l 693 1000 q 785 976 744 1000 q 851 910 826 951 q 875 818 875 869 l 875 818 l 1015 818 q 1056 801 1039 818 q 1074 760 1074 783 l 1074 760 l 1074 249 z m 578 818 l 578 818 l 810 818 q 776 901 810 867 q 693 935 742 935 l 693 935 q 612 901 646 935 q 578 818 578 867 z m 1015 24 l 371 24 q 331 41 349 24 q 314 83 314 58 l 314 83 l 314 200 l 1074 200 l 1074 83 q 1056 41 1074 58 q 1015 24 1039 24 l 1015 24 z "},"☻":{"ha":1389,"x_min":228,"x_max":1160,"o":"m 693 13 l 693 13 q 513 49 597 13 q 365 149 429 85 q 264 297 300 213 q 228 476 228 381 l 228 476 q 264 656 228 572 q 365 804 300 740 q 513 904 429 868 q 693 940 597 940 l 693 940 q 874 904 789 940 q 1023 803 958 868 q 1124 655 1088 739 q 1160 475 1160 571 l 1160 475 q 1124 296 1160 379 q 1023 149 1088 213 q 874 49 958 85 q 693 13 789 13 z m 550 517 l 550 517 q 584 532 569 517 q 599 568 599 547 l 599 568 q 584 603 599 588 q 550 618 569 618 l 550 618 q 513 603 528 618 q 497 568 497 588 l 497 568 q 513 532 497 547 q 550 517 528 517 z m 840 517 l 840 517 q 877 532 863 517 q 892 568 892 547 l 892 568 q 877 603 892 588 q 840 618 863 618 l 840 618 q 806 603 821 618 q 792 568 792 588 l 792 568 q 806 532 792 547 q 840 517 821 517 z m 694 272 l 694 272 q 801 299 751 272 q 878 376 850 326 l 878 376 q 868 410 890 399 l 868 410 q 848 412 860 414 q 832 401 836 410 l 832 401 q 776 342 814 364 q 694 321 738 321 l 694 321 q 616 343 651 321 q 557 401 581 365 l 557 401 q 540 412 551 410 q 521 410 529 414 l 521 410 q 513 376 499 397 l 513 376 q 592 301 544 329 q 694 272 639 272 z "},"🔈":{"ha":1389,"x_min":199,"x_max":1189,"o":"m 785 21 l 785 21 q 760 29 771 21 l 760 29 l 514 268 l 232 268 q 208 277 218 268 q 199 299 199 286 l 199 299 l 199 658 q 208 681 199 672 q 232 690 218 690 l 232 690 l 514 690 l 760 929 q 786 940 771 940 l 786 940 q 808 930 799 940 q 817 904 817 919 l 817 904 l 817 51 q 785 21 817 21 z m 1022 169 l 1022 169 l 988 226 q 1088 333 1051 267 q 1125 475 1125 399 l 1125 475 q 988 722 1125 626 l 988 722 l 1022 778 q 1144 648 1099 731 q 1189 475 1189 565 l 1189 475 q 1145 301 1189 382 q 1022 169 1101 221 z m 943 297 l 943 297 l 907 353 q 974 481 974 400 l 974 481 q 907 594 974 549 l 907 594 l 943 650 q 1039 474 1039 582 l 1039 474 q 1013 375 1039 422 q 943 297 988 328 z "},"👤":{"ha":1389,"x_min":261,"x_max":1129,"o":"m 1129 0 l 261 0 l 261 126 q 278 192 261 161 q 324 242 294 224 l 324 242 l 565 392 q 581 422 581 401 l 581 422 q 578 443 581 433 q 567 471 575 453 l 567 471 q 553 497 561 482 q 535 531 546 511 l 535 531 q 525 550 529 540 q 514 569 521 560 l 514 569 q 482 608 494 583 q 469 658 469 632 l 469 658 q 482 707 469 682 l 482 707 q 546 874 486 810 q 696 938 606 938 l 696 938 q 847 874 788 938 q 908 707 906 810 l 908 707 q 921 658 921 682 l 921 658 q 908 608 921 632 q 876 569 896 583 l 876 569 q 866 550 871 560 q 856 531 861 540 l 856 531 q 838 497 846 511 q 824 471 829 482 l 824 471 q 810 422 810 440 l 810 422 q 825 392 810 403 l 825 392 l 1067 243 q 1112 194 1094 226 q 1129 126 1129 163 l 1129 126 l 1129 0 z "},"":{"ha":1389,"x_min":204,"x_max":1183,"o":"m 963 0 l 425 0 q 314 30 364 0 q 234 110 264 60 q 204 221 204 160 l 204 221 l 204 758 q 234 869 204 819 q 314 949 264 919 q 425 979 364 979 l 425 979 l 963 979 q 1074 949 1024 979 q 1153 869 1124 919 q 1183 758 1183 819 l 1183 758 l 1183 221 q 1153 110 1183 160 q 1074 30 1124 60 q 963 0 1024 0 l 963 0 z m 676 178 l 676 178 q 685 180 681 178 q 694 183 689 182 l 694 183 q 738 208 707 189 q 809 253 769 226 q 887 312 849 281 q 951 372 925 343 l 951 372 q 1021 535 1021 453 l 1021 535 q 977 669 1021 608 q 859 765 933 729 q 694 801 785 801 l 694 801 q 531 765 606 801 q 413 669 457 729 q 368 535 368 608 l 368 535 q 403 415 368 469 q 501 322 439 360 q 640 274 563 285 l 640 274 q 658 269 649 272 q 669 258 667 265 l 669 258 q 672 244 672 253 q 669 228 671 235 l 669 228 q 664 192 664 194 l 664 192 q 666 183 664 188 q 676 178 668 178 z m 572 451 l 481 451 q 475 458 475 451 l 475 458 l 475 600 q 481 607 475 607 l 481 607 l 504 607 q 510 600 510 607 l 510 600 l 510 488 l 572 488 q 578 481 578 488 l 578 481 l 578 458 q 572 451 578 451 l 572 451 z m 628 451 l 604 451 q 597 458 597 451 l 597 458 l 597 600 q 604 607 597 607 l 604 607 l 628 607 q 635 600 635 607 l 635 600 l 635 458 q 628 451 635 451 l 628 451 z m 686 451 l 663 451 q 657 458 657 451 l 657 458 l 657 600 q 663 607 657 607 l 663 607 l 685 607 q 692 601 689 607 l 692 601 l 756 515 l 756 600 q 761 607 756 607 l 761 607 l 786 607 q 792 600 792 607 l 792 600 l 792 458 q 786 451 792 451 l 786 451 l 763 451 q 756 456 758 451 l 756 456 l 692 542 l 692 458 q 686 451 692 451 l 686 451 z m 911 451 l 821 451 q 814 458 814 451 l 814 458 l 814 600 q 821 607 814 607 l 821 607 l 911 607 q 918 600 918 607 l 918 600 l 918 578 q 911 569 918 569 l 911 569 l 850 569 l 850 546 l 911 546 q 918 540 918 546 l 918 540 l 918 517 q 911 511 918 511 l 911 511 l 850 511 l 850 488 l 911 488 q 918 481 918 488 l 918 481 l 918 458 q 911 451 918 451 l 911 451 z "},"":{"ha":2022,"x_min":225,"x_max":1797,"o":"m 974 204 l 892 204 q 869 225 869 204 l 869 225 l 869 732 q 892 753 869 753 l 892 753 l 971 753 q 996 740 988 753 l 996 740 l 1222 431 l 1222 732 q 1243 753 1222 753 l 1243 753 l 1328 753 q 1343 747 1336 753 q 1350 732 1350 742 l 1350 732 l 1350 225 q 1343 210 1350 215 q 1328 204 1336 204 l 1328 204 l 1246 204 q 1221 217 1229 204 l 1221 217 l 994 526 l 994 225 q 974 204 994 204 l 974 204 z m 572 204 l 247 204 q 232 210 239 204 q 225 225 225 215 l 225 225 l 225 732 q 232 747 225 742 q 247 753 239 753 l 247 753 l 331 753 q 353 732 353 753 l 353 732 l 353 331 l 572 331 q 594 308 594 331 l 594 308 l 594 225 q 572 204 594 204 l 572 204 z m 768 204 l 686 204 q 665 225 665 204 l 665 225 l 665 732 q 686 753 665 753 l 686 753 l 768 753 q 790 732 790 753 l 790 732 l 790 225 q 768 204 790 204 l 768 204 z m 1775 204 l 1450 204 q 1435 210 1442 204 q 1428 225 1428 215 l 1428 225 l 1428 732 q 1435 747 1428 742 q 1450 753 1442 753 l 1450 753 l 1775 753 q 1790 747 1783 753 q 1797 732 1797 742 l 1797 732 l 1797 649 q 1790 633 1797 639 q 1775 628 1783 628 l 1775 628 l 1553 628 l 1553 542 l 1775 542 q 1790 535 1783 542 q 1797 521 1797 529 l 1797 521 l 1797 436 q 1790 422 1797 428 q 1775 415 1783 415 l 1775 415 l 1553 415 l 1553 331 l 1775 331 q 1790 324 1783 331 q 1797 308 1797 318 l 1797 308 l 1797 225 q 1790 210 1797 215 q 1775 204 1783 204 l 1775 204 z "},"":{"ha":1553,"x_min":69,"x_max":1483,"o":"m 246 308 l 246 308 q 119 358 169 308 q 69 486 69 407 l 69 486 q 119 613 69 564 q 246 663 169 663 l 246 663 q 374 613 324 663 q 424 486 424 564 l 424 486 q 374 358 424 407 q 246 308 324 308 z m 779 329 l 575 329 q 569 335 569 329 l 569 335 l 569 636 q 575 643 569 643 l 575 643 l 622 643 q 628 636 628 643 l 628 636 l 628 385 l 779 385 q 783 379 783 385 l 783 379 l 783 335 q 779 329 783 329 l 779 329 z m 874 329 l 828 329 q 822 335 822 329 l 822 335 l 822 636 q 828 643 822 643 l 828 643 l 874 643 q 879 636 879 643 l 879 636 l 879 335 q 874 329 879 329 l 874 329 z m 996 329 l 951 329 q 946 335 946 329 l 946 335 l 946 636 q 951 643 946 643 l 951 643 l 1000 643 q 1007 639 1004 643 l 1007 639 l 1147 424 l 1147 636 q 1153 643 1147 643 l 1153 643 l 1196 643 q 1201 636 1201 643 l 1201 636 l 1201 335 q 1196 329 1201 329 l 1196 329 l 1149 329 q 1142 333 1144 329 l 1142 333 l 1001 550 l 1001 335 q 996 329 1001 329 l 996 329 z m 1476 329 l 1274 329 q 1268 335 1268 329 l 1268 335 l 1268 636 q 1274 643 1268 643 l 1274 643 l 1472 643 q 1478 636 1478 643 l 1478 636 l 1478 593 q 1472 588 1478 588 l 1472 588 l 1325 588 l 1325 517 l 1458 517 q 1463 511 1463 517 l 1463 511 l 1463 468 q 1458 464 1463 464 l 1458 464 l 1325 464 l 1325 383 l 1476 383 q 1483 378 1483 383 l 1483 378 l 1483 335 q 1476 329 1483 329 l 1476 329 z m 246 340 l 246 340 q 350 381 311 340 q 389 486 389 422 l 389 486 q 350 590 389 549 q 246 631 311 631 l 246 631 q 142 590 182 631 q 103 486 103 549 l 103 486 q 142 381 103 422 q 246 340 182 340 z m 247 390 l 247 390 q 179 417 204 390 q 154 486 154 443 l 154 486 q 179 554 154 528 q 246 581 204 581 l 246 581 q 297 569 275 581 q 329 529 319 557 l 329 529 q 325 522 331 525 l 325 522 l 296 514 q 288 518 292 513 l 288 518 q 249 540 272 540 l 249 540 q 213 524 225 540 q 200 486 200 508 l 200 486 q 213 447 200 464 q 250 431 225 431 l 250 431 q 289 454 281 431 l 289 454 q 296 458 290 460 l 296 458 l 328 450 q 332 443 333 449 l 332 443 q 299 403 322 417 q 247 390 275 390 z "}}}
